<?xml version="1.0" encoding="utf-8"?>
<!-- Generator: Adobe Illustrator 15.1.0, SVG Export Plug-In . SVG Version: 6.00 Build 0)  -->
<!DOCTYPE svg PUBLIC "-//W3C//DTD SVG 1.1//EN" "http://www.w3.org/Graphics/SVG/1.1/DTD/svg11.dtd">
<svg version="1.1" id="Layer_1" xmlns="http://www.w3.org/2000/svg" xmlns:xlink="http://www.w3.org/1999/xlink" x="0px" y="0px"
	 width="148px" height="40px" viewBox="0 0 148 40" enable-background="new 0 0 148 40" xml:space="preserve">
<path fill="#DA4537" d="M13.695,21.102c0.759,0.754,1.229,1.808,1.229,2.965c0,1.156-0.471,2.207-1.229,2.966l4.617,4.618
	c1.905-1.906,3.093-4.521,3.135-7.415c-0.054,0-0.109,0-0.169,0C18.318,24.235,15.635,23.037,13.695,21.102"/>
<path fill="#DA4537" d="M18.306,16.484c-0.759-0.76-1.224-1.809-1.224-2.972c0-1.157,0.464-2.206,1.224-2.966L13.688,5.93
	c-1.898,1.904-3.086,4.521-3.127,7.42c0.054-0.007,0.109-0.007,0.163-0.007C13.683,13.343,16.365,14.543,18.306,16.484"/>
<path fill="#E36E60" d="M17.082,13.615c0,0.036,0,0.072,0,0.103c0,0.819,0.235,1.579,0.64,2.218
	c0.198,0.175,0.397,0.355,0.584,0.549C17.57,15.749,17.113,14.734,17.082,13.615"/>
<path fill="none" d="M6.528,24.066L6.528,24.066c0-2.32,1.881-4.2,4.196-4.2c1.157,0,2.211,0.471,2.964,1.229
	c0.007,0,0.007,0.006,0.007,0.006c0.759,0.754,1.229,1.808,1.229,2.965c0,1.156-0.471,2.207-1.229,2.966
	c-0.76,0.759-1.814,1.237-2.971,1.237C8.409,28.27,6.528,26.387,6.528,24.066 M18.312,16.484c0,0,0,0-0.006,0
	c-0.759-0.76-1.224-1.809-1.224-2.972c0-1.157,0.464-2.206,1.224-2.966c0.76-0.765,1.815-1.229,2.971-1.229
	c2.321,0,4.202,1.881,4.202,4.195l0,0c0,2.321-1.881,4.201-4.202,4.201C20.121,17.714,19.066,17.242,18.312,16.484 M13.688,5.93
	c-1.898,1.904-3.086,4.521-3.127,7.42C4.714,13.435,0,18.195,0,24.066l0,0c0,5.926,4.805,10.723,10.724,10.723
	c2.964,0,5.648-1.199,7.588-3.139c1.905-1.906,3.093-4.521,3.135-7.415C27.287,24.145,32,19.384,32,13.513l0,0
	C32,7.594,27.203,2.79,21.277,2.79C18.318,2.79,15.635,3.989,13.688,5.93"/>
<path fill="#119C58" d="M25.479,13.513c0,2.321-1.881,4.201-4.202,4.201c-1.156,0-2.205-0.472-2.965-1.229c0,0,0,0-0.006,0
	c-1.94-1.941-4.623-3.142-7.582-3.142c-0.054,0-0.109,0-0.163,0.007C4.714,13.44,0,18.195,0,24.066h6.528
	c0-2.32,1.881-4.2,4.196-4.2c1.157,0,2.211,0.471,2.964,1.229c0.007,0,0.007,0,0.007,0.006c1.94,1.936,4.623,3.134,7.582,3.134
	c0.061,0,0.116,0,0.169,0C27.292,24.145,32,19.384,32,13.513H25.479z"/>
<path fill="#F2B31B" d="M21.277,9.317c2.321,0,4.202,1.881,4.202,4.195l0,0H32l0,0C32,7.594,27.203,2.79,21.277,2.79
	c-2.959,0-5.642,1.2-7.589,3.14l4.618,4.617C19.066,9.782,20.121,9.317,21.277,9.317"/>
<path fill="#BD4434" d="M18.306,10.547c-0.138,0.145-0.271,0.295-0.392,0.458c-0.036,0.049-0.078,0.109-0.114,0.163
	c-0.145,0.21-0.265,0.434-0.368,0.669c-0.029,0.061-0.054,0.12-0.078,0.181c-0.025,0.067-0.043,0.127-0.067,0.192
	c-0.12,0.38-0.192,0.783-0.205,1.2c0-0.019,0-0.03,0-0.049l0,0c0-0.019-0.005-0.036-0.005-0.055c0-1.107,0.434-2.108,1.127-2.862
	L18.306,10.547z"/>
<path fill="#567DBE" d="M10.724,28.27c-2.315,0-4.196-1.883-4.196-4.203l0,0H0l0,0c0,5.926,4.805,10.723,10.724,10.723
	c2.964,0,5.648-1.199,7.588-3.139l-4.617-4.618C12.935,27.791,11.887,28.27,10.724,28.27"/>
<path fill="#E99E10" d="M25.479,13.307v0.206c0-2.314-1.881-4.195-4.202-4.195c-1.156,0-2.205,0.471-2.971,1.229l-0.096-0.103
	c0.03-0.036,0.066-0.072,0.096-0.103c0.766-0.765,1.815-1.235,2.971-1.235C23.598,9.106,25.479,10.986,25.479,13.307"/>
<g>
	<path fill="#FFFFFF" d="M56.011,11.752c0,1.8-0.534,3.234-1.602,4.302c-1.2,1.272-2.778,1.908-4.734,1.908
		c-1.872,0-3.456-0.648-4.752-1.944s-1.944-2.892-1.944-4.788s0.648-3.492,1.944-4.788s2.88-1.944,4.752-1.944
		c0.948,0,1.842,0.168,2.682,0.504s1.53,0.81,2.07,1.422l-1.188,1.188c-0.396-0.48-0.909-0.855-1.539-1.125
		c-0.63-0.27-1.305-0.405-2.025-0.405c-1.404,0-2.592,0.486-3.564,1.458c-0.96,0.984-1.44,2.214-1.44,3.69s0.48,2.706,1.44,3.69
		c0.972,0.972,2.16,1.458,3.564,1.458c1.284,0,2.352-0.36,3.204-1.08c0.852-0.72,1.344-1.71,1.476-2.97h-4.68V10.78h6.246
		C55.98,11.116,56.011,11.44,56.011,11.752z"/>
	<path fill="#FFFFFF" d="M58.026,17.674V4.786h4.662c1.02,0,1.896,0.336,2.628,1.008c0.732,0.66,1.098,1.494,1.098,2.502
		c0,1.272-0.582,2.166-1.746,2.682v0.072c0.66,0.216,1.188,0.591,1.584,1.125c0.396,0.534,0.594,1.143,0.594,1.827
		c0,1.056-0.384,1.932-1.152,2.628c-0.744,0.696-1.662,1.044-2.754,1.044H58.026z M59.683,6.37v3.942h3.006
		c0.588,0,1.08-0.198,1.476-0.594c0.396-0.408,0.594-0.87,0.594-1.386c0-0.504-0.192-0.96-0.576-1.368
		C63.798,6.568,63.324,6.37,62.76,6.37H59.683z M59.683,11.86v4.23h3.33c0.6,0,1.109-0.21,1.53-0.63
		c0.408-0.42,0.612-0.918,0.612-1.494c0-0.564-0.21-1.056-0.63-1.476c-0.42-0.42-0.948-0.63-1.584-0.63H59.683z"/>
	<path fill="#FFFFFF" d="M81.121,11.752c0,1.8-0.535,3.234-1.603,4.302c-1.2,1.272-2.778,1.908-4.734,1.908
		c-1.872,0-3.456-0.648-4.752-1.944s-1.944-2.892-1.944-4.788s0.648-3.492,1.944-4.788s2.88-1.944,4.752-1.944
		c0.948,0,1.843,0.168,2.683,0.504s1.529,0.81,2.069,1.422l-1.188,1.188c-0.396-0.48-0.908-0.855-1.538-1.125
		s-1.306-0.405-2.025-0.405c-1.404,0-2.592,0.486-3.564,1.458c-0.96,0.984-1.44,2.214-1.44,3.69s0.48,2.706,1.44,3.69
		c0.972,0.972,2.16,1.458,3.564,1.458c1.284,0,2.353-0.36,3.204-1.08c0.852-0.72,1.344-1.71,1.477-2.97h-4.681V10.78h6.246
		C81.09,11.116,81.121,11.44,81.121,11.752z"/>
</g>
<g>
	<path fill="#FFFFFF" d="M56.011,28.414c0,1.8-0.534,3.234-1.602,4.302c-1.2,1.272-2.778,1.908-4.734,1.908
		c-1.872,0-3.456-0.647-4.752-1.944c-1.296-1.296-1.944-2.892-1.944-4.787c0-1.896,0.648-3.492,1.944-4.789
		c1.296-1.295,2.88-1.943,4.752-1.943c0.948,0,1.842,0.168,2.682,0.504s1.53,0.811,2.07,1.422l-1.188,1.188
		c-0.396-0.479-0.909-0.854-1.539-1.125c-0.63-0.27-1.305-0.404-2.025-0.404c-1.404,0-2.592,0.486-3.564,1.458
		c-0.96,0.983-1.44,2.214-1.44,3.69c0,1.476,0.48,2.705,1.44,3.689c0.972,0.972,2.16,1.458,3.564,1.458
		c1.284,0,2.352-0.36,3.204-1.08s1.344-1.71,1.476-2.97h-4.68v-1.549h6.246C55.98,27.777,56.011,28.102,56.011,28.414z"/>
	<path fill="#FFFFFF" d="M61.608,34.624c-1.296,0-2.364-0.444-3.204-1.332c-0.84-0.888-1.26-2.01-1.26-3.366
		c0-1.344,0.408-2.463,1.224-3.357c0.816-0.893,1.86-1.34,3.132-1.34c1.308,0,2.349,0.422,3.123,1.269
		c0.774,0.846,1.161,2.031,1.161,3.555l-0.018,0.181h-6.93c0.024,0.863,0.312,1.56,0.864,2.088c0.552,0.527,1.212,0.791,1.98,0.791
		c1.056,0,1.884-0.527,2.484-1.584l1.476,0.721c-0.396,0.744-0.945,1.326-1.647,1.746S62.497,34.624,61.608,34.624z M58.962,28.863
		h5.058c-0.048-0.611-0.297-1.118-0.747-1.521c-0.45-0.401-1.053-0.603-1.809-0.603c-0.625,0-1.161,0.191-1.611,0.576
		C59.404,27.7,59.106,28.216,58.962,28.863z"/>
	<path fill="#FFFFFF" d="M66.882,29.926c0-1.355,0.426-2.478,1.278-3.365c0.864-0.889,1.95-1.332,3.258-1.332
		c1.308,0,2.388,0.443,3.24,1.332c0.864,0.888,1.297,2.01,1.297,3.365c0,1.368-0.433,2.49-1.297,3.366
		c-0.852,0.888-1.932,1.332-3.24,1.332c-1.308,0-2.394-0.444-3.258-1.332C67.308,32.404,66.882,31.282,66.882,29.926z
		 M68.539,29.926c0,0.948,0.276,1.717,0.828,2.305c0.552,0.588,1.236,0.881,2.052,0.881c0.816,0,1.5-0.293,2.052-0.881
		c0.552-0.588,0.828-1.356,0.828-2.305c0-0.936-0.276-1.697-0.828-2.285c-0.564-0.601-1.248-0.9-2.052-0.9
		c-0.804,0-1.488,0.3-2.052,0.9C68.814,28.229,68.539,28.99,68.539,29.926z"/>
	<path fill="#FFFFFF" d="M78.942,34.336h-1.656v-8.82h1.584v1.44h0.072c0.168-0.468,0.513-0.866,1.035-1.197
		c0.522-0.329,1.034-0.495,1.538-0.495c0.48,0,0.889,0.072,1.225,0.217l-0.504,1.602c-0.204-0.084-0.528-0.126-0.973-0.126
		c-0.623,0-1.166,0.252-1.629,0.756c-0.461,0.504-0.692,1.093-0.692,1.765V34.336z"/>
	<path fill="#FFFFFF" d="M87.276,38.512c-0.492,0-0.954-0.062-1.386-0.189c-0.432-0.125-0.826-0.303-1.18-0.53
		s-0.656-0.498-0.908-0.81c-0.252-0.312-0.444-0.66-0.576-1.045l1.566-0.647c0.18,0.516,0.491,0.93,0.936,1.241
		C86.172,36.844,86.688,37,87.276,37c0.899,0,1.603-0.27,2.106-0.811c0.504-0.539,0.756-1.283,0.756-2.231v-0.847h-0.072
		c-0.312,0.469-0.735,0.838-1.27,1.107c-0.533,0.27-1.113,0.405-1.736,0.405c-1.152,0-2.143-0.45-2.971-1.351
		c-0.816-0.924-1.224-2.039-1.224-3.348c0-1.308,0.407-2.418,1.224-3.33c0.828-0.912,1.818-1.367,2.971-1.367
		c0.623,0,1.203,0.135,1.736,0.404c0.534,0.27,0.957,0.639,1.27,1.107h0.072v-1.225h1.584v8.442c0,1.415-0.402,2.526-1.207,3.33
		C89.7,38.104,88.62,38.512,87.276,38.512z M87.33,33.111c0.816,0,1.482-0.293,1.998-0.881c0.54-0.588,0.811-1.356,0.811-2.305
		c0-0.924-0.271-1.686-0.811-2.285c-0.527-0.601-1.193-0.9-1.998-0.9c-0.792,0-1.458,0.3-1.998,0.9
		c-0.539,0.6-0.81,1.361-0.81,2.285c0,0.936,0.271,1.698,0.81,2.286C85.872,32.812,86.538,33.111,87.33,33.111z"/>
	<path fill="#FFFFFF" d="M97.607,34.624c-1.295,0-2.363-0.444-3.203-1.332s-1.26-2.01-1.26-3.366c0-1.344,0.407-2.463,1.224-3.357
		c0.815-0.893,1.86-1.34,3.132-1.34c1.309,0,2.35,0.422,3.123,1.269c0.773,0.846,1.161,2.031,1.161,3.555l-0.019,0.181h-6.93
		c0.023,0.863,0.312,1.56,0.864,2.088c0.552,0.527,1.212,0.791,1.979,0.791c1.057,0,1.885-0.527,2.484-1.584l1.477,0.721
		c-0.396,0.744-0.945,1.326-1.647,1.746S98.496,34.624,97.607,34.624z M94.962,28.863h5.058c-0.047-0.611-0.297-1.118-0.746-1.521
		c-0.45-0.401-1.053-0.603-1.809-0.603c-0.625,0-1.162,0.191-1.611,0.576C95.403,27.7,95.105,28.216,94.962,28.863z"/>
	<path fill="#FFFFFF" d="M111.217,23.031v11.305h-1.656V23.031h-3.6v-1.584h8.855v1.584H111.217z"/>
	<path fill="#FFFFFF" d="M114.312,29.926c0-1.355,0.426-2.478,1.277-3.365c0.864-0.889,1.95-1.332,3.258-1.332
		c1.309,0,2.389,0.443,3.24,1.332c0.864,0.888,1.297,2.01,1.297,3.365c0,1.368-0.433,2.49-1.297,3.366
		c-0.852,0.888-1.932,1.332-3.24,1.332c-1.308,0-2.394-0.444-3.258-1.332C114.738,32.404,114.312,31.282,114.312,29.926z
		 M115.969,29.926c0,0.948,0.275,1.717,0.827,2.305s1.235,0.881,2.052,0.881s1.5-0.293,2.053-0.881
		c0.552-0.588,0.828-1.356,0.828-2.305c0-0.936-0.276-1.697-0.828-2.285c-0.564-0.601-1.248-0.9-2.053-0.9
		c-0.804,0-1.488,0.3-2.052,0.9C116.244,28.229,115.969,28.99,115.969,29.926z"/>
	<path fill="#FFFFFF" d="M137.209,25.516l-2.845,8.82h-1.692l-2.195-6.768l-2.178,6.768h-1.674l-2.845-8.82h1.728l1.963,6.66h0.018
		l2.178-6.66h1.711l2.178,6.66h0.018l1.944-6.66H137.209z"/>
	<path fill="#FFFFFF" d="M138.288,25.516h1.584v1.225h0.072c0.252-0.432,0.64-0.793,1.161-1.08c0.521-0.288,1.064-0.432,1.629-0.432
		c1.08,0,1.91,0.309,2.492,0.926c0.582,0.619,0.873,1.498,0.873,2.638v5.544h-1.655V28.9c-0.036-1.44-0.763-2.16-2.179-2.16
		c-0.66,0-1.211,0.268-1.655,0.801c-0.444,0.534-0.666,1.173-0.666,1.917v4.878h-1.656V25.516z"/>
</g>
<path fill="#E36E60" d="M13.688,6.141c1.947-1.941,4.63-3.146,7.589-3.146c5.86,0,10.61,4.695,10.717,10.518H32l0,0
	C32,7.587,27.203,2.79,21.277,2.79c-2.959,0-5.642,1.2-7.589,3.14c-1.898,1.904-3.086,4.521-3.127,7.42h0.006
	C10.664,10.535,11.838,7.997,13.688,6.141"/>
<path fill="#3DAF76" d="M25.479,13.513c0,2.321-1.881,4.201-4.202,4.201c-1.156,0-2.205-0.472-2.965-1.229c0,0,0,0-0.006,0
	c-1.94-1.941-4.623-3.142-7.582-3.142c-0.054,0-0.109,0-0.163,0.007C4.714,13.44,0,18.195,0,24.066h0.006
	c0.108-5.773,4.779-10.428,10.554-10.512c0.054,0,0.109-0.006,0.163-0.006c2.959,0,5.642,1.2,7.582,3.141c0.006,0,0.006,0,0.006,0
	c0.76,0.76,1.809,1.23,2.965,1.23c2.321,0,4.202-1.877,4.202-4.197V13.513z"/>
<g>
	<path fill="#17874F" d="M6.528,24.066c0-2.32,1.881-4.2,4.196-4.2c1.157,0,2.211,0.471,2.964,1.229
		c0.007,0,0.007,0.006,0.007,0.006c1.94,1.936,4.623,3.134,7.582,3.134c0.061,0,0.116,0,0.169,0C27.292,24.145,32,19.384,32,13.513
		h-0.006c-0.107,5.774-4.773,10.427-10.547,10.519c-0.054,0-0.109,0-0.169,0c-2.959,0-5.642-1.2-7.582-3.143h-0.007
		c-0.753-0.758-1.808-1.229-2.964-1.229c-2.315,0-4.196,1.883-4.196,4.195"/>
</g>
<path fill="#BD4434" d="M20.675,28.082c0.313-0.791,0.536-1.616,0.663-2.479c0.067-0.447,0.103-0.903,0.109-1.368
	c-0.054,0-0.115,0-0.169,0c-2.898,0-5.527-1.146-7.456-3.014L20.675,28.082z"/>
<path fill="#BD4434" d="M21.446,24.235c-0.006,0.272-0.018,0.536-0.042,0.802c-0.042,0.446-0.11,0.881-0.199,1.309
	c-0.055,0.253-0.114,0.5-0.187,0.742c0,0.01-0.005,0.022-0.012,0.033c-0.024,0.08-0.048,0.152-0.066,0.226
	c-0.108,0.331-0.229,0.655-0.362,0.964c-0.036,0.078-0.072,0.156-0.107,0.234c-0.14,0.307-0.296,0.609-0.471,0.904
	c-0.078,0.14-0.156,0.267-0.241,0.397c-0.012,0.019-0.024,0.037-0.036,0.055c-0.042,0.066-0.085,0.126-0.127,0.194
	c-0.192,0.276-0.396,0.553-0.608,0.812c-0.097,0.115-0.192,0.229-0.296,0.338c-0.066,0.078-0.137,0.151-0.204,0.224
	c-0.06,0.058-0.114,0.12-0.175,0.181l-0.108-0.104c0.036-0.037,0.072-0.066,0.108-0.103c0.061-0.061,0.115-0.12,0.175-0.181
	c0.066-0.072,0.137-0.145,0.204-0.223c0.104-0.115,0.199-0.23,0.296-0.338c0.212-0.26,0.416-0.531,0.608-0.814
	c0.042-0.066,0.085-0.133,0.127-0.197c0.012-0.014,0.024-0.031,0.036-0.049c0.084-0.133,0.163-0.266,0.241-0.398
	c0.175-0.295,0.332-0.596,0.471-0.91c0.035-0.072,0.071-0.15,0.107-0.229c0.133-0.314,0.254-0.633,0.362-0.965
	c0.018-0.073,0.042-0.145,0.066-0.223c0.007-0.014,0.012-0.023,0.012-0.036c0.073-0.241,0.132-0.489,0.187-0.741
	c0.089-0.428,0.157-0.863,0.199-1.309c0.018-0.199,0.029-0.396,0.036-0.597l0,0H21.446z"/>
<path fill="#7695CC" d="M6.528,24.271L6.528,24.271c0,2.32,1.881,4.201,4.196,4.201c1.163,0,2.211-0.471,2.971-1.229
	c0.759-0.761,1.229-1.809,1.229-2.973c0-0.036-0.006-0.066-0.006-0.103c-0.024,1.116-0.488,2.129-1.224,2.863
	c-0.76,0.759-1.808,1.237-2.971,1.237c-2.315,0-4.196-1.883-4.196-4.203l0,0V24.271z"/>
<path fill="#4A6CB1" d="M18.312,31.65c-1.94,1.939-4.628,3.139-7.588,3.139C4.805,34.789,0,29.992,0,24.066l0,0h0.006
	c0.108,5.83,4.863,10.518,10.717,10.518c1.482,0,2.894-0.299,4.177-0.842c1.236-0.525,2.356-1.272,3.303-2.195L18.312,31.65z"/>
<path fill="#F7C442" d="M21.277,2.79c-2.959,0-5.642,1.2-7.589,3.14l0.111,0.111c1.938-1.879,4.573-3.046,7.478-3.046
	c5.86,0,10.61,4.695,10.717,10.518H32C32,7.594,27.203,2.79,21.277,2.79z"/>
<path fill="#E36E60" d="M14.924,24.271c0-0.036-0.006-0.066-0.006-0.103c-0.002,0.081-0.022,0.156-0.028,0.235
	c-0.015,0.188-0.027,0.377-0.067,0.558c-0.024,0.11-0.067,0.212-0.1,0.319c-0.045,0.149-0.083,0.303-0.145,0.444
	c-0.063,0.148-0.149,0.282-0.229,0.421c-0.052,0.091-0.093,0.188-0.151,0.274c-0.149,0.22-0.317,0.425-0.504,0.611l0.096,0.096
	C14.488,26.378,14.924,25.381,14.924,24.271z"/>
</svg>
