<?xml version="1.0" encoding="utf-8"?>
<!-- Generator: Adobe Illustrator 15.1.0, SVG Export Plug-In . SVG Version: 6.00 Build 0)  -->
<!DOCTYPE svg PUBLIC "-//W3C//DTD SVG 1.1//EN" "http://www.w3.org/Graphics/SVG/1.1/DTD/svg11.dtd">
<svg version="1.1" id="Layer_1" xmlns="http://www.w3.org/2000/svg" xmlns:xlink="http://www.w3.org/1999/xlink" x="0px" y="0px"
	 width="136px" height="40px" viewBox="0 0 136 40" enable-background="new 0 0 136 40" xml:space="preserve">
<g>
	<g>
		<polygon fill="#FFC107" points="14.788,28.322 12.13,23.725 5.75,34.754 11.214,34.754 14.861,28.445 		"/>
		<polygon fill="#0F9D58" points="9.256,18.754 12.13,23.725 5.751,34.754 0,34.754 		"/>
		<polygon fill="#4285F4" points="5.75,2.753 0,2.753 14.861,28.445 17.735,23.48 17.737,23.475 		"/>
		<path fill="#DB4437" d="M19.599,20.254c0.539-0.932,0.539-2.07,0-3l-8.385-14.5H5.751l11.985,20.721L19.599,20.254z"/>
	</g>
	<g enable-background="new    ">
		<path fill="#FFFFFF" d="M44.013,11.192c0,1.8-0.534,3.234-1.602,4.302c-1.2,1.272-2.778,1.908-4.734,1.908
			c-1.872,0-3.456-0.648-4.752-1.944s-1.944-2.892-1.944-4.788c0-1.896,0.648-3.491,1.944-4.788c1.296-1.296,2.88-1.943,4.752-1.943
			c0.948,0,1.842,0.168,2.682,0.504s1.53,0.81,2.07,1.422L41.24,7.053c-0.396-0.48-0.909-0.855-1.539-1.125
			c-0.63-0.271-1.305-0.405-2.025-0.405c-1.404,0-2.592,0.485-3.564,1.458c-0.96,0.983-1.44,2.214-1.44,3.689
			c0,1.477,0.48,2.706,1.44,3.69c0.972,0.972,2.16,1.458,3.564,1.458c1.284,0,2.352-0.36,3.204-1.08s1.344-1.71,1.476-2.97h-4.68
			v-1.548h6.246C43.982,10.557,44.013,10.88,44.013,11.192z"/>
		<path fill="#FFFFFF" d="M46.028,17.114V4.227h3.942c1.968,0,3.549,0.594,4.743,1.781c1.194,1.188,1.791,2.742,1.791,4.662
			c0,1.933-0.597,3.489-1.791,4.671c-1.194,1.183-2.775,1.773-4.743,1.773H46.028z M47.685,5.811v9.72h2.286
			c1.5,0,2.682-0.429,3.546-1.287c0.864-0.857,1.296-2.049,1.296-3.573c0-1.512-0.432-2.699-1.296-3.563
			c-0.864-0.864-2.046-1.296-3.546-1.296H47.685z"/>
		<path fill="#FFFFFF" d="M70.869,11.192c0,1.8-0.535,3.234-1.603,4.302c-1.2,1.272-2.778,1.908-4.734,1.908
			c-1.872,0-3.456-0.648-4.752-1.944s-1.944-2.892-1.944-4.788c0-1.896,0.648-3.491,1.944-4.788c1.296-1.296,2.88-1.943,4.752-1.943
			c0.948,0,1.842,0.168,2.682,0.504s1.53,0.81,2.07,1.422l-1.188,1.188c-0.396-0.48-0.909-0.855-1.539-1.125
			c-0.63-0.271-1.305-0.405-2.025-0.405c-1.404,0-2.592,0.485-3.564,1.458c-0.96,0.983-1.44,2.214-1.44,3.689
			c0,1.477,0.48,2.706,1.44,3.69c0.972,0.972,2.16,1.458,3.564,1.458c1.284,0,2.352-0.36,3.204-1.08
			c0.852-0.72,1.344-1.71,1.477-2.97h-4.681v-1.548h6.246C70.838,10.557,70.869,10.88,70.869,11.192z"/>
	</g>
	<g>
		<g enable-background="new    ">
			<path fill="#FFFFFF" d="M44.013,27.854c0,1.8-0.534,3.234-1.602,4.302c-1.2,1.272-2.778,1.908-4.734,1.908
				c-1.872,0-3.456-0.648-4.752-1.944s-1.944-2.892-1.944-4.788c0-1.896,0.648-3.491,1.944-4.788
				c1.296-1.296,2.88-1.943,4.752-1.943c0.948,0,1.842,0.168,2.682,0.504s1.53,0.81,2.07,1.422l-1.188,1.188
				c-0.396-0.48-0.909-0.855-1.539-1.125c-0.63-0.271-1.305-0.405-2.025-0.405c-1.404,0-2.592,0.485-3.564,1.458
				c-0.96,0.983-1.44,2.214-1.44,3.689c0,1.477,0.48,2.706,1.44,3.69c0.972,0.972,2.16,1.458,3.564,1.458
				c1.284,0,2.352-0.36,3.204-1.08s1.344-1.71,1.476-2.97h-4.68v-1.548h6.246C43.982,27.218,44.013,27.541,44.013,27.854z"/>
			<path fill="#FFFFFF" d="M49.61,34.063c-1.296,0-2.364-0.444-3.204-1.332c-0.84-0.888-1.26-2.01-1.26-3.366
				c0-1.344,0.408-2.463,1.224-3.356c0.816-0.895,1.86-1.342,3.132-1.342c1.308,0,2.349,0.424,3.123,1.27s1.161,2.031,1.161,3.555
				l-0.018,0.181h-6.93c0.024,0.863,0.312,1.56,0.864,2.088c0.552,0.527,1.212,0.792,1.98,0.792c1.056,0,1.884-0.528,2.484-1.584
				l1.476,0.72c-0.396,0.744-0.945,1.326-1.647,1.746S50.499,34.063,49.61,34.063z M46.964,28.304h5.058
				c-0.048-0.612-0.297-1.119-0.747-1.521c-0.45-0.401-1.053-0.603-1.809-0.603c-0.625,0-1.161,0.191-1.611,0.576
				C47.406,27.14,47.108,27.655,46.964,28.304z"/>
			<path fill="#FFFFFF" d="M54.884,29.365c0-1.355,0.426-2.478,1.278-3.366c0.864-0.888,1.95-1.332,3.258-1.332
				c1.308,0,2.388,0.444,3.24,1.332c0.864,0.889,1.296,2.011,1.296,3.366c0,1.368-0.432,2.49-1.296,3.366
				c-0.852,0.888-1.932,1.332-3.24,1.332c-1.308,0-2.394-0.444-3.258-1.332C55.31,31.844,54.884,30.722,54.884,29.365z
				 M56.541,29.365c0,0.948,0.276,1.717,0.828,2.304c0.552,0.589,1.236,0.883,2.052,0.883c0.816,0,1.5-0.294,2.052-0.883
				c0.552-0.587,0.828-1.355,0.828-2.304c0-0.936-0.276-1.697-0.828-2.286c-0.564-0.6-1.248-0.899-2.052-0.899
				c-0.804,0-1.488,0.3-2.052,0.899C56.816,27.668,56.541,28.43,56.541,29.365z"/>
			<path fill="#FFFFFF" d="M66.944,33.775h-1.656v-8.82h1.584v1.44h0.072c0.168-0.468,0.513-0.867,1.035-1.197
				s1.034-0.495,1.538-0.495c0.48,0,0.889,0.072,1.225,0.216l-0.504,1.603c-0.204-0.084-0.528-0.126-0.973-0.126
				c-0.623,0-1.167,0.252-1.628,0.756s-0.693,1.092-0.693,1.764V33.775z"/>
			<path fill="#FFFFFF" d="M75.278,37.951c-0.492,0-0.954-0.062-1.386-0.188s-0.826-0.304-1.18-0.531
				c-0.354-0.229-0.656-0.498-0.908-0.81c-0.252-0.312-0.444-0.66-0.576-1.045l1.566-0.647c0.18,0.516,0.491,0.93,0.936,1.242
				c0.443,0.312,0.959,0.468,1.548,0.468c0.899,0,1.603-0.271,2.106-0.811c0.504-0.539,0.756-1.284,0.756-2.231v-0.846h-0.072
				c-0.312,0.468-0.735,0.837-1.27,1.106c-0.533,0.271-1.113,0.405-1.736,0.405c-1.152,0-2.143-0.45-2.971-1.35
				c-0.816-0.925-1.224-2.04-1.224-3.349c0-1.308,0.407-2.418,1.224-3.33c0.828-0.911,1.818-1.368,2.971-1.368
				c0.623,0,1.203,0.136,1.736,0.405c0.534,0.271,0.957,0.639,1.27,1.107h0.072v-1.225h1.584v8.442c0,1.416-0.402,2.525-1.207,3.33
				C77.702,37.543,76.622,37.951,75.278,37.951z M75.332,32.552c0.816,0,1.482-0.294,1.998-0.883
				c0.54-0.587,0.811-1.355,0.811-2.304c0-0.924-0.271-1.686-0.811-2.286c-0.527-0.6-1.193-0.899-1.998-0.899
				c-0.792,0-1.458,0.3-1.998,0.899c-0.539,0.601-0.81,1.362-0.81,2.286c0,0.937,0.271,1.698,0.81,2.286
				C73.874,32.252,74.54,32.552,75.332,32.552z"/>
			<path fill="#FFFFFF" d="M85.609,34.063c-1.295,0-2.363-0.444-3.203-1.332s-1.26-2.01-1.26-3.366c0-1.344,0.407-2.463,1.224-3.356
				c0.815-0.895,1.86-1.342,3.132-1.342c1.309,0,2.35,0.424,3.123,1.27s1.16,2.031,1.16,3.555l-0.018,0.181h-6.93
				c0.023,0.863,0.312,1.56,0.864,2.088c0.552,0.527,1.212,0.792,1.979,0.792c1.057,0,1.885-0.528,2.484-1.584l1.477,0.72
				c-0.396,0.744-0.945,1.326-1.648,1.746C87.293,33.854,86.498,34.063,85.609,34.063z M82.964,28.304h5.058
				c-0.047-0.612-0.297-1.119-0.746-1.521c-0.451-0.401-1.053-0.603-1.809-0.603c-0.625,0-1.162,0.191-1.611,0.576
				C83.405,27.14,83.107,27.655,82.964,28.304z"/>
			<path fill="#FFFFFF" d="M99.219,22.472v11.304h-1.656V22.472h-3.601v-1.584h8.856v1.584H99.219z"/>
			<path fill="#FFFFFF" d="M102.314,29.365c0-1.355,0.426-2.478,1.278-3.366c0.864-0.888,1.949-1.332,3.258-1.332
				c1.308,0,2.388,0.444,3.24,1.332c0.863,0.889,1.296,2.011,1.296,3.366c0,1.368-0.433,2.49-1.296,3.366
				c-0.853,0.888-1.933,1.332-3.24,1.332c-1.309,0-2.394-0.444-3.258-1.332C102.74,31.844,102.314,30.722,102.314,29.365z
				 M103.971,29.365c0,0.948,0.275,1.717,0.828,2.304c0.552,0.589,1.235,0.883,2.052,0.883c0.815,0,1.5-0.294,2.052-0.883
				c0.552-0.587,0.828-1.355,0.828-2.304c0-0.936-0.276-1.697-0.828-2.286c-0.564-0.6-1.248-0.899-2.052-0.899
				s-1.488,0.3-2.052,0.899C104.246,27.668,103.971,28.43,103.971,29.365z"/>
			<path fill="#FFFFFF" d="M125.21,24.955l-2.844,8.82h-1.692l-2.196-6.768l-2.178,6.768h-1.674l-2.844-8.82h1.728l1.962,6.66h0.019
				l2.178-6.66h1.71l2.178,6.66h0.019l1.943-6.66H125.21z"/>
			<path fill="#FFFFFF" d="M126.29,24.955h1.584v1.225h0.072c0.252-0.433,0.639-0.792,1.161-1.08
				c0.521-0.288,1.064-0.433,1.629-0.433c1.08,0,1.911,0.31,2.493,0.928s0.873,1.497,0.873,2.637v5.544h-1.656V28.34
				c-0.036-1.44-0.763-2.16-2.178-2.16c-0.66,0-1.213,0.267-1.656,0.801c-0.444,0.534-0.666,1.173-0.666,1.917v4.878h-1.656V24.955z
				"/>
		</g>
	</g>
</g>
</svg>
