<?xml version="1.0" encoding="utf-8"?>
<!-- Generator: Adobe Illustrator 15.1.0, SVG Export Plug-In . SVG Version: 6.00 Build 0)  -->
<!DOCTYPE svg PUBLIC "-//W3C//DTD SVG 1.1//EN" "http://www.w3.org/Graphics/SVG/1.1/DTD/svg11.dtd">
<svg version="1.1" id="Layer_1" xmlns="http://www.w3.org/2000/svg" xmlns:xlink="http://www.w3.org/1999/xlink" x="0px" y="0px"
	 width="24px" height="24px" viewBox="0 0 24 24" enable-background="new 0 0 24 24" xml:space="preserve">
<g>
	<g>
		<path fill="#FFFFFF" d="M20.746,10.6V7.8h-2.1v2.8h-2.8V12.7h2.8v2.8h2.1v-2.8h2.801V10.6H20.746z M7.447,10.726v2.611h3.856
			c-0.183,1.1-1.169,2.954-3.851,2.954c-2.316,0-4.207-1.925-4.207-4.284s1.891-4.284,4.207-4.284c1.31,0,2.191,0.561,2.695,1.037
			l1.988-1.933C10.926,5.693,9.344,5,7.453,5c-3.863,0-7,3.136-7,7c0,3.863,3.137,7,7,7c4.039,0,6.721-2.843,6.721-6.839
			c0-0.581-0.077-0.994-0.176-1.436H7.447z"/>
	</g>
</g>
</svg>
