<?xml version="1.0" encoding="utf-8"?>
<!-- Generator: Adobe Illustrator 15.1.0, SVG Export Plug-In . SVG Version: 6.00 Build 0)  -->
<!DOCTYPE svg PUBLIC "-//W3C//DTD SVG 1.1//EN" "http://www.w3.org/Graphics/SVG/1.1/DTD/svg11.dtd">
<svg version="1.1" id="Layer_1" xmlns="http://www.w3.org/2000/svg" xmlns:xlink="http://www.w3.org/1999/xlink" x="0px" y="0px"
	 width="260px" height="240px" viewBox="0 0 260 240" enable-background="new 0 0 260 240" xml:space="preserve">
<g>
	<g>
		<path fill="#F6B917" d="M199.645,123.116c-3.442,13.262-9.726,24.925-18.857,34.979c-9.136,10.055-21.663,17.22-37.589,21.486
			c-10.75,2.881-21.182,3.671-31.297,2.371c-10.12-1.3-19.437-4.404-27.952-9.324c-8.519-4.916-15.865-11.432-22.05-19.545
			c-6.185-8.109-10.744-17.639-13.674-28.576c-2.725-10.17-3.487-20.301-2.282-30.395c1.202-10.089,4.153-19.418,8.854-27.98
			c4.697-8.557,10.97-16.052,18.815-22.473c7.844-6.421,17.135-11.07,27.885-13.951c11.321-3.034,21.896-3.862,31.729-2.485
			c9.826,1.377,18.605,4.579,26.329,9.605c7.721,5.027,14.327,11.64,19.815,19.835c5.485,8.2,9.646,17.575,12.473,28.126
			c0.361,1.345,0.67,2.496,0.926,3.454c0.115,1.203,0.304,2.286,0.561,3.243c0.064,1.015,0.252,2.093,0.561,3.244L87.672,123.192
			c2.308,5.553,5.215,10.07,8.722,13.551c3.505,3.487,7.402,6.145,11.701,7.973c4.294,1.832,8.72,2.807,13.277,2.921
			c4.554,0.12,9.038-0.417,13.455-1.601c8.635-2.313,15.255-6.193,19.863-11.646c4.605-5.447,7.741-11.586,9.412-18.411
			L199.645,123.116z M150.735,77.603c-0.861-2.439-2.421-5.006-4.684-7.692c-2.261-2.682-5.147-4.994-8.646-6.938
			c-3.504-1.939-7.551-3.222-12.137-3.844c-4.592-0.621-9.762-0.161-15.519,1.382c-8.06,2.16-14.545,6.365-19.45,12.616
			c-4.91,6.252-7.504,13.841-7.785,22.757L150.735,77.603z"/>
	</g>
	<g>
		<path fill="#DB4437" d="M112.731,146.341c-1.562-0.435-3.108-0.973-4.637-1.625c-0.023-0.01-0.047-0.021-0.07-0.031l-28.396,7.609
			c0.682,0.803,1.373,1.592,2.08,2.359L112.731,146.341z"/>
		<path fill="#DB4437" d="M65.118,126.308c0.304,0.897,0.609,1.791,0.938,2.667l127.831-34.253c-0.263-0.981-0.419-1.9-0.504-2.782
			L65.118,126.308z"/>
		<path fill="#DB4437" d="M97.483,137.782l-23.857,6.393c0.537,0.836,1.084,1.664,1.651,2.475l24.824-6.65
			C99.206,139.306,98.334,138.567,97.483,137.782z"/>
		<path fill="#DB4437" d="M171.957,127.554c-0.686,0.947-1.398,1.881-2.166,2.79c-0.267,0.315-0.54,0.624-0.821,0.929l30.541-8.184
			l-6.226-1.25L171.957,127.554z"/>
		<path fill="#DB4437" d="M177.01,118.57c-0.128,0.309-0.251,0.619-0.387,0.924l2.137-0.572L177.01,118.57z"/>
		<path fill="#DB4437" d="M96.732,167.165c0.767,0.48,1.531,0.963,2.318,1.416c0.357,0.206,0.723,0.391,1.083,0.59l90.425-24.229
			c0.677-1.132,1.329-2.276,1.95-3.44L96.732,167.165z"/>
		<path fill="#DB4437" d="M171.067,166.787l-42.203,11.309c3.115,0.321,6.258,0.464,9.433,0.392l24.646-6.604
			C165.821,170.328,168.532,168.634,171.067,166.787z"/>
		<path fill="#DB4437" d="M70.202,138.282l22.421-6.007c-0.562-0.79-1.1-1.624-1.621-2.483L68.9,135.714
			C69.315,136.585,69.76,137.435,70.202,138.282z"/>
		<path fill="#DB4437" d="M109.385,173.501c1.571,0.604,3.171,1.139,4.789,1.635l67.546-18.099c1.078-1.228,2.114-2.478,3.11-3.751
			L109.385,173.501z"/>
		<path fill="#DB4437" d="M191.45,83.423L62.707,117.919c0.199,0.848,0.393,1.693,0.62,2.541c0.018,0.066,0.039,0.129,0.057,0.195
			l128.82-34.518c-0.114-0.428-0.233-0.871-0.361-1.348C191.72,84.327,191.578,83.88,191.45,83.423z"/>
		<path fill="#DB4437" d="M87.147,160.006c0.858,0.761,1.736,1.496,2.627,2.214l106.365-28.501c0.435-1.073,0.855-2.154,1.247-3.251
			L87.147,160.006z"/>
		<path fill="#DB4437" d="M158.438,63.087c0.824,0.732,1.586,1.502,2.294,2.303l20.668-5.538c-0.513-0.846-1.048-1.671-1.586-2.493
			L158.438,63.087z"/>
		<path fill="#DB4437" d="M141.161,28.808L83.528,44.25c-1.308,1.271-2.555,2.582-3.756,3.924l66.502-17.819
			C144.607,29.776,142.903,29.259,141.161,28.808z"/>
		<path fill="#DB4437" d="M60.846,92.155l23.094-6.188c0.291-1.091,0.635-2.151,1.015-3.19l-23.779,6.372
			c-0.04,0.308-0.094,0.608-0.131,0.917C60.961,90.761,60.91,91.458,60.846,92.155z"/>
		<path fill="#DB4437" d="M164.665,70.938c0.472,0.883,0.864,1.752,1.166,2.605l19.994-5.358c-0.406-0.87-0.82-1.734-1.25-2.583
			L164.665,70.938z"/>
		<path fill="#DB4437" d="M66.929,68.152c-0.471,1.081-0.916,2.173-1.336,3.276l102.913-27.576c-0.828-0.77-1.672-1.516-2.532-2.24
			L66.929,68.152z"/>
		<path fill="#DB4437" d="M146.768,56.487c1.543,0.485,3.009,1.065,4.396,1.74l24.533-6.574c-0.646-0.815-1.308-1.609-1.98-2.387
			L146.768,56.487z"/>
		<path fill="#DB4437" d="M70.958,60.264l88.25-23.647c-1.105-0.709-2.238-1.375-3.389-2.01L73.138,56.762
			C72.378,57.907,71.653,59.076,70.958,60.264z"/>
		<path fill="#DB4437" d="M96.94,33.848l27.03-7.243c-4.685-0.012-9.519,0.417-14.514,1.32
			C105.004,29.556,100.829,31.526,96.94,33.848z"/>
		<path fill="#DB4437" d="M60.535,101.757l21.98-5.889c0.032-1.01,0.103-1.996,0.193-2.971l-22.196,5.947
			C60.506,99.815,60.505,100.786,60.535,101.757z"/>
		<path fill="#DB4437" d="M62.426,82.005l26.616-7.133c0.408-0.59,0.812-1.18,1.258-1.747c0.529-0.675,1.083-1.322,1.649-1.95
			l-28.771,7.709C62.905,79.914,62.659,80.956,62.426,82.005z"/>
		<path fill="#DB4437" d="M61.445,111.448L189.486,77.14c-0.314-0.898-0.651-1.775-0.987-2.653L61.05,108.636
			C61.16,109.573,61.302,110.511,61.445,111.448z"/>
	</g>
	<g>
		<path d="M123.126,140.638l-15.102,4.047c0.023,0.01,0.047,0.021,0.07,0.031c1.528,0.652,3.075,1.19,4.637,1.625l15.101-4.046
			c-1.562-0.435-3.108-0.974-4.637-1.626C123.172,140.659,123.149,140.647,123.126,140.638z"/>
		<path d="M181.399,59.853l15.101-4.047c-0.513-0.845-1.048-1.67-1.586-2.493l-15.101,4.046
			C180.352,58.182,180.887,59.007,181.399,59.853z"/>
		<path d="M112.585,133.735l-15.102,4.047c0.851,0.785,1.723,1.523,2.618,2.217l15.101-4.047
			C114.308,135.259,113.435,134.521,112.585,133.735z"/>
		<path d="M187.635,113.626l-9.726,2.605c-0.277,0.789-0.582,1.568-0.899,2.339l1.75,0.352l15.101-4.046L187.635,113.626z"/>
		<path d="M185.825,68.186l15.101-4.046c-0.406-0.87-0.82-1.734-1.25-2.583l-15.101,4.046
			C185.005,66.452,185.419,67.316,185.825,68.186z"/>
		<path d="M89.042,74.872l15.102-4.046c0.407-0.589,0.812-1.18,1.258-1.747c0.529-0.675,1.082-1.323,1.648-1.95l-15.101,4.046
			c-0.566,0.628-1.12,1.275-1.649,1.95C89.854,73.692,89.45,74.282,89.042,74.872z"/>
		<path d="M189.486,77.14l15.101-4.047c-0.313-0.896-0.65-1.774-0.986-2.653l-15.102,4.046
			C188.835,75.364,189.172,76.241,189.486,77.14z"/>
		<path d="M175.696,51.653l15.101-4.046c-0.646-0.815-1.308-1.609-1.98-2.387l-15.101,4.046
			C174.389,50.044,175.05,50.838,175.696,51.653z"/>
		<path d="M106.103,125.745l-15.101,4.047c0.521,0.859,1.06,1.693,1.621,2.483l15.101-4.046
			C107.162,127.438,106.625,126.605,106.103,125.745z"/>
		<path d="M97.617,91.821c0.032-1.009,0.102-1.995,0.193-2.971l-15.102,4.047c-0.091,0.975-0.161,1.961-0.193,2.971L97.617,91.821z"
			/>
		<path d="M99.04,81.921c0.291-1.091,0.635-2.151,1.015-3.19l-15.101,4.046c-0.38,1.039-0.724,2.1-1.015,3.19L99.04,81.921z"/>
		<path d="M196.14,133.719l15.102-4.046c0.435-1.073,0.854-2.154,1.246-3.252l-15.101,4.047
			C196.995,131.564,196.574,132.646,196.14,133.719z"/>
		<path d="M168.506,43.853l15.102-4.046c-0.828-0.77-1.672-1.516-2.532-2.24l-15.102,4.046
			C166.834,42.337,167.678,43.083,168.506,43.853z"/>
		<polygon points="193.285,121.839 199.511,123.089 214.611,119.042 208.386,117.792 		"/>
		<path d="M190.559,144.941l15.101-4.046c0.677-1.132,1.33-2.277,1.951-3.44l-15.102,4.046
			C191.888,142.665,191.235,143.81,190.559,144.941z"/>
		<path d="M193.888,94.722l15.102-4.046c-0.264-0.981-0.42-1.901-0.505-2.782l-15.101,4.046
			C193.469,92.821,193.625,93.74,193.888,94.722z"/>
		<path d="M206.551,79.376l-15.101,4.047c0.128,0.457,0.27,0.904,0.393,1.367c0.128,0.477,0.247,0.92,0.361,1.348l15.102-4.046
			c-0.115-0.428-0.234-0.872-0.361-1.349C206.82,80.281,206.68,79.834,206.551,79.376z"/>
		<path d="M181.72,157.037l15.101-4.046c1.078-1.228,2.116-2.479,3.11-3.752l-15.101,4.047
			C183.834,154.56,182.798,155.81,181.72,157.037z"/>
		<path d="M159.208,36.617l15.102-4.046c-1.106-0.709-2.238-1.375-3.389-2.01l-15.102,4.046
			C156.97,35.243,158.103,35.908,159.208,36.617z"/>
		<path d="M146.274,30.356l15.102-4.046c-1.668-0.58-3.372-1.097-5.112-1.548l-15.103,4.046
			C142.903,29.259,144.607,29.776,146.274,30.356z"/>
		<path d="M123.971,26.605l15.102-4.046c-7.136-0.018-14.622,1-22.475,3.104c-2.459,0.659-4.835,1.418-7.141,2.262
			C114.452,27.022,119.286,26.593,123.971,26.605z"/>
		<path d="M162.943,171.883l15.102-4.046c2.877-1.555,5.589-3.25,8.123-5.096l-15.101,4.046
			C168.532,168.634,165.821,170.328,162.943,171.883z"/>
	</g>
</g>
</svg>
