<?xml version="1.0" encoding="utf-8"?>
<!-- Generator: Adobe Illustrator 15.1.0, SVG Export Plug-In . SVG Version: 6.00 Build 0)  -->
<!DOCTYPE svg PUBLIC "-//W3C//DTD SVG 1.1//EN" "http://www.w3.org/Graphics/SVG/1.1/DTD/svg11.dtd">
<svg version="1.1" id="Layer_1" xmlns="http://www.w3.org/2000/svg" xmlns:xlink="http://www.w3.org/1999/xlink" x="0px" y="0px"
	 width="260px" height="240px" viewBox="0 0 260 240" enable-background="new 0 0 260 240" xml:space="preserve">
<g>
	<g>
		<path fill="#3060B8" d="M67.837,75.116l36.144-18.814l10.401,19.981l2.351-1.225c-0.072-4.443,0.596-8.899,2.004-13.367
			c1.409-4.468,3.355-8.732,5.846-12.807c2.486-4.066,5.487-7.868,9.001-11.407c3.513-3.532,7.324-6.375,11.438-8.517
			c5.092-2.651,9.735-4.373,13.928-5.173c4.189-0.797,8.011-0.989,11.466-0.576l7.611,39.734c-2.962,0.05-6.045,0.475-9.241,1.264
			c-3.198,0.795-6.854,2.26-10.967,4.4c-5.288,2.754-9.551,6.291-12.781,10.6c-3.236,4.311-5.396,9.13-6.482,14.451
			c-1.094,5.324-1.163,10.928-0.21,16.815c0.947,5.892,2.96,11.788,6.033,17.692l36.907,70.896l-38.495,20.037L67.837,75.116z"/>
	</g>
	<g>
		<path fill="#132EE7" d="M78.715,96.014l36.144-18.814l10.401,19.98l2.351-1.224c-0.072-4.444,0.597-8.899,2.005-13.368
			c1.408-4.467,3.355-8.731,5.846-12.807c2.486-4.064,5.485-7.867,8.999-11.407c3.514-3.532,7.327-6.375,11.441-8.517
			c5.091-2.65,9.733-4.373,13.927-5.173c4.188-0.797,8.009-0.989,11.464-0.576l7.613,39.734c-2.963,0.05-6.045,0.475-9.24,1.264
			c-3.198,0.794-6.854,2.259-10.967,4.401c-5.291,2.752-9.552,6.29-12.783,10.598c-3.235,4.312-5.396,9.131-6.482,14.451
			c-1.093,5.324-1.163,10.929-0.21,16.817c0.948,5.89,2.962,11.786,6.035,17.69l36.905,70.896L153.67,240L78.715,96.014z"/>
	</g>
	<path fill="#4285F4" d="M138.345,110.476c-0.953-5.888-0.884-11.491,0.21-16.815c1.086-5.321,3.246-10.141,6.482-14.451
		c3.23-4.309,7.493-7.846,12.781-10.6c4.113-2.141,7.769-3.605,10.967-4.4c3.196-0.789,6.279-1.214,9.241-1.264l-3.622-18.903
		c-1.475,0.129-2.999,0.342-4.576,0.643c-4.193,0.8-8.836,2.523-13.927,5.173c-4.114,2.142-7.928,4.984-11.441,8.517
		c-3.514,3.54-6.513,7.342-8.999,11.407c-2.49,4.075-4.438,8.34-5.846,12.807c-1.408,4.469-2.077,8.924-2.005,13.368l-2.351,1.224
		l-10.401-19.98L78.715,96.014l64.075,123.088l38.495-20.037l-26.027-50l-10.88-20.896
		C141.305,122.264,139.292,116.367,138.345,110.476z"/>
</g>
</svg>
