<?xml version="1.0" encoding="utf-8"?>
<!-- Generator: Adobe Illustrator 15.1.0, SVG Export Plug-In . SVG Version: 6.00 Build 0)  -->
<!DOCTYPE svg PUBLIC "-//W3C//DTD SVG 1.1//EN" "http://www.w3.org/Graphics/SVG/1.1/DTD/svg11.dtd">
<svg version="1.1" id="Layer_1" xmlns="http://www.w3.org/2000/svg" xmlns:xlink="http://www.w3.org/1999/xlink" x="0px" y="0px"
	 width="180px" height="36px" viewBox="0 0 180 36" enable-background="new 0 0 180 36" xml:space="preserve">
<g>
	<polygon fill="#FFFFFF" points="8.286,16.086 8.011,15.611 7.038,13.928 5.207,17.093 3.698,19.703 6.194,19.703 	"/>
	<polygon fill="#FFFFFF" points="6.529,13.049 5.189,10.732 0,19.703 2.681,19.703 	"/>
	<polygon fill="#FFFFFF" points="10.135,12.888 2.681,0 0,0 5.189,8.972 5.189,8.972 7.038,12.169 7.038,12.169 8.794,15.207 	"/>
	<path fill="#FFFFFF" d="M11.461,10.595c0.266-0.46,0.266-1.027,0-1.488L6.195,0H3.699l6.946,12.007L11.461,10.595L11.461,10.595z"
		/>
</g>
<path fill="#FFFFFF" d="M16.446,16.755V3.374h4.092c2.044,0,3.686,0.617,4.926,1.851c1.239,1.233,1.859,2.847,1.859,4.84
	c0,2.006-0.62,3.623-1.859,4.85c-1.24,1.228-2.882,1.842-4.926,1.842h-4.092V16.755z M18.165,5.018v10.093h2.373
	c1.559,0,2.785-0.445,3.683-1.337c0.896-0.891,1.345-2.127,1.345-3.71c0-1.57-0.448-2.803-1.345-3.7
	c-0.897-0.897-2.124-1.346-3.683-1.346H18.165z M32.893,17.054c-1.347,0-2.455-0.461-3.327-1.383s-1.309-2.088-1.309-3.495
	c0-1.396,0.424-2.558,1.271-3.486c0.848-0.928,1.932-1.392,3.252-1.392c1.358,0,2.439,0.439,3.243,1.317
	c0.804,0.878,1.205,2.109,1.205,3.691l-0.02,0.187h-7.194c0.024,0.897,0.324,1.62,0.897,2.168c0.572,0.548,1.258,0.822,2.056,0.822
	c1.096,0,1.956-0.548,2.579-1.644l1.531,0.747c-0.41,0.773-0.98,1.377-1.71,1.813C34.64,16.836,33.813,17.054,32.893,17.054
	 M30.145,11.074h5.252c-0.051-0.636-0.308-1.162-0.776-1.58c-0.467-0.417-1.093-0.626-1.878-0.626c-0.647,0-1.205,0.201-1.672,0.598
	C30.604,9.865,30.294,10.4,30.145,11.074 M43.059,16.755h-1.72L37.64,7.597h1.868l2.69,7.102h0.038l2.729-7.102h1.832L43.059,16.755
	z M49.937,11.017v5.738h-1.72V3.374h7.812v1.645h-6.093v4.393h5.494v1.606L49.937,11.017L49.937,11.017z M61.225,17.054
	c-1.346,0-2.456-0.461-3.327-1.383c-0.873-0.922-1.309-2.088-1.309-3.495c0-1.396,0.423-2.558,1.271-3.486
	c0.847-0.928,1.931-1.393,3.251-1.393c1.358,0,2.439,0.439,3.243,1.317c0.803,0.878,1.205,2.109,1.205,3.691l-0.019,0.187h-7.195
	c0.024,0.897,0.324,1.62,0.897,2.168c0.572,0.548,1.258,0.822,2.055,0.822c1.097,0,1.956-0.548,2.579-1.644l1.532,0.747
	c-0.41,0.773-0.98,1.377-1.71,1.813C62.972,16.836,62.145,17.054,61.225,17.054 M58.477,11.074h5.252
	c-0.051-0.636-0.309-1.162-0.776-1.58c-0.467-0.417-1.093-0.626-1.878-0.626c-0.647,0-1.205,0.201-1.674,0.598
	C58.935,9.866,58.627,10.4,58.477,11.074 M74.23,14.213c0,0.798-0.349,1.471-1.046,2.019c-0.698,0.548-1.577,0.822-2.636,0.822
	c-0.922,0-1.731-0.24-2.429-0.72c-0.698-0.48-1.196-1.112-1.496-1.897l1.533-0.653c0.224,0.548,0.552,0.975,0.98,1.28
	c0.431,0.306,0.901,0.458,1.411,0.458c0.549,0,1.006-0.118,1.374-0.355c0.367-0.236,0.552-0.516,0.552-0.841
	c0-0.585-0.448-1.016-1.346-1.29l-1.569-0.392c-1.783-0.449-2.673-1.309-2.673-2.58c0-0.834,0.338-1.504,1.018-2.008
	c0.68-0.505,1.548-0.757,2.607-0.757c0.811,0,1.542,0.194,2.196,0.579c0.654,0.387,1.112,0.904,1.373,1.551l-1.532,0.636
	c-0.174-0.386-0.458-0.688-0.851-0.906c-0.392-0.218-0.832-0.327-1.317-0.327c-0.449,0-0.85,0.111-1.206,0.336
	c-0.354,0.224-0.532,0.499-0.532,0.822c0,0.523,0.491,0.897,1.477,1.122l1.383,0.354C73.321,11.915,74.23,12.831,74.23,14.213
	 M79.258,16.904c-0.748,0-1.367-0.23-1.859-0.691c-0.491-0.461-0.744-1.102-0.756-1.925V9.167h-1.606v-1.57h1.606V4.794h1.719v2.803
	h2.242v1.57h-2.242v4.56c0,0.611,0.119,1.025,0.354,1.243c0.237,0.218,0.505,0.328,0.806,0.328c0.138,0,0.271-0.016,0.4-0.047
	c0.125-0.029,0.247-0.069,0.364-0.121l0.542,1.532C80.38,16.823,79.855,16.904,79.258,16.904"/>
<polygon fill="#FFFFFF" points="94.544,10.98 94.544,12.4 91.163,12.4 91.163,15.783 89.742,15.783 89.742,12.4 86.359,12.4 
	86.359,10.98 89.742,10.98 89.742,7.597 91.163,7.597 91.163,10.98 "/>
<path fill="#FFFFFF" d="M97.843,29.238v0.912h2.754c-0.078,0.74-0.367,1.324-0.869,1.746c-0.502,0.424-1.129,0.637-1.885,0.637
	c-0.826,0-1.525-0.287-2.098-0.859c-0.564-0.578-0.848-1.303-0.848-2.17c0-0.869,0.283-1.594,0.848-2.172
	c0.572-0.572,1.271-0.857,2.098-0.857c0.424,0,0.82,0.078,1.191,0.238c0.369,0.158,0.672,0.379,0.904,0.662l0.698-0.699
	c-0.317-0.359-0.724-0.639-1.218-0.836s-1.02-0.297-1.577-0.297c-1.103,0-2.034,0.381-2.797,1.143
	c-0.763,0.766-1.144,1.703-1.144,2.818s0.381,2.055,1.144,2.816c0.763,0.761,1.694,1.145,2.797,1.145
	c1.15,0,2.079-0.375,2.784-1.123c0.628-0.629,0.943-1.473,0.943-2.531c0-0.184-0.02-0.375-0.055-0.57L97.843,29.238L97.843,29.238z
	 M104.801,27.936c-0.749,0-1.362,0.266-1.843,0.791c-0.48,0.523-0.721,1.186-0.721,1.975c0,0.801,0.246,1.459,0.742,1.98
	c0.492,0.521,1.121,0.783,1.883,0.783c0.521,0,0.99-0.123,1.404-0.371c0.414-0.246,0.733-0.59,0.969-1.027l-0.868-0.424
	c-0.354,0.621-0.841,0.936-1.462,0.936c-0.452,0-0.84-0.156-1.163-0.469c-0.326-0.312-0.496-0.721-0.511-1.229h4.078l0.01-0.107
	c0-0.895-0.228-1.594-0.682-2.09C106.183,28.186,105.569,27.936,104.801,27.936z M103.308,30.076
	c0.084-0.383,0.26-0.686,0.523-0.912c0.266-0.225,0.581-0.338,0.947-0.338c0.445,0,0.801,0.119,1.062,0.354
	c0.268,0.238,0.412,0.535,0.439,0.896H103.308z M110.636,27.936c-0.771,0-1.408,0.264-1.917,0.785
	c-0.501,0.521-0.753,1.182-0.753,1.979c0,0.801,0.252,1.459,0.753,1.981c0.509,0.521,1.146,0.782,1.917,0.782
	c0.77,0,1.404-0.262,1.905-0.782c0.509-0.517,0.765-1.177,0.765-1.981c0-0.798-0.256-1.457-0.765-1.979
	C112.04,28.197,111.405,27.936,110.636,27.936z M111.843,32.055c-0.324,0.348-0.728,0.521-1.207,0.521
	c-0.48,0-0.884-0.174-1.207-0.521c-0.326-0.346-0.488-0.797-0.488-1.354c0-0.551,0.162-0.998,0.488-1.346
	c0.331-0.352,0.733-0.527,1.207-0.527c0.473,0,0.875,0.178,1.207,0.527c0.324,0.348,0.487,0.795,0.487,1.346
	C112.33,31.258,112.167,31.709,111.843,32.055z M115.671,28.248c-0.309,0.195-0.51,0.43-0.607,0.705h-0.043v-0.848h-0.934v5.188
	h0.977v-2.857c0-0.396,0.137-0.742,0.406-1.037c0.271-0.297,0.592-0.445,0.958-0.445c0.261,0,0.452,0.025,0.573,0.074l0.296-0.943
	c-0.198-0.084-0.438-0.127-0.722-0.127C116.278,27.957,115.978,28.055,115.671,28.248z M121.649,28.826h-0.043
	c-0.185-0.275-0.435-0.492-0.746-0.652c-0.314-0.158-0.655-0.238-1.022-0.238c-0.678,0-1.26,0.271-1.747,0.807
	c-0.479,0.535-0.72,1.189-0.72,1.959c0,0.771,0.239,1.428,0.72,1.973c0.487,0.527,1.069,0.793,1.747,0.793
	c0.367,0,0.708-0.08,1.022-0.236c0.312-0.16,0.562-0.375,0.746-0.65h0.043v0.496c0,0.559-0.148,0.996-0.445,1.312
	c-0.296,0.317-0.709,0.479-1.239,0.479c-0.345,0-0.649-0.094-0.909-0.275c-0.263-0.186-0.445-0.43-0.552-0.73l-0.922,0.381
	c0.078,0.227,0.19,0.432,0.339,0.613c0.148,0.186,0.327,0.346,0.535,0.479s0.439,0.236,0.693,0.312
	c0.254,0.074,0.525,0.11,0.813,0.11c0.791,0,1.429-0.239,1.907-0.721c0.472-0.474,0.709-1.125,0.709-1.959v-4.968h-0.934v0.72h0.004
	V28.826z M121.172,32.055c-0.303,0.348-0.694,0.521-1.175,0.521c-0.467,0-0.857-0.178-1.176-0.531
	c-0.317-0.346-0.479-0.793-0.479-1.346c0-0.541,0.159-0.99,0.479-1.344c0.315-0.354,0.709-0.529,1.176-0.529
	c0.473,0,0.865,0.178,1.175,0.529c0.317,0.354,0.478,0.803,0.478,1.344C121.649,31.258,121.489,31.709,121.172,32.055z
	 M125.981,27.936c-0.75,0-1.363,0.266-1.844,0.791c-0.48,0.523-0.722,1.186-0.722,1.975c0,0.801,0.246,1.459,0.742,1.98
	c0.491,0.521,1.12,0.783,1.884,0.783c0.521,0,0.99-0.123,1.402-0.371c0.414-0.246,0.734-0.59,0.971-1.027l-0.869-0.424
	c-0.354,0.621-0.84,0.936-1.461,0.936c-0.453,0-0.841-0.156-1.165-0.469c-0.323-0.312-0.495-0.721-0.509-1.229h4.076l0.012-0.107
	c0-0.895-0.229-1.594-0.684-2.09C127.362,28.186,126.75,27.936,125.981,27.936z M124.487,30.076c0.084-0.383,0.26-0.686,0.522-0.912
	c0.267-0.225,0.58-0.338,0.948-0.338c0.443,0,0.8,0.119,1.062,0.354c0.266,0.238,0.41,0.535,0.438,0.896H124.487z M136.169,25.713
	h-5.211v0.932h2.118v6.65h0.975v-6.65h2.118V25.713z M138.54,27.936c-0.77,0-1.408,0.264-1.916,0.785
	c-0.502,0.521-0.752,1.182-0.752,1.979c0,0.801,0.25,1.459,0.752,1.981c0.508,0.521,1.146,0.782,1.916,0.782
	c0.771,0,1.406-0.262,1.906-0.782c0.509-0.517,0.764-1.177,0.764-1.981c0-0.798-0.255-1.457-0.764-1.979
	C139.946,28.197,139.312,27.936,138.54,27.936z M139.747,32.055c-0.323,0.348-0.727,0.521-1.207,0.521
	c-0.479,0-0.882-0.174-1.207-0.521c-0.324-0.346-0.486-0.797-0.486-1.354c0-0.551,0.162-0.998,0.486-1.346
	c0.331-0.352,0.734-0.527,1.207-0.527c0.475,0,0.876,0.178,1.207,0.527c0.326,0.348,0.486,0.795,0.486,1.346
	C140.233,31.258,140.073,31.709,139.747,32.055z M147.204,32.023h-0.012l-1.28-3.918h-1.007l-1.281,3.918h-0.01l-1.154-3.918h-1.018
	l1.674,5.188h0.984l1.279-3.98l1.292,3.98h0.996l1.673-5.188h-0.994L147.204,32.023z M152.595,27.936
	c-0.332,0-0.65,0.086-0.959,0.256c-0.307,0.168-0.535,0.383-0.683,0.637h-0.043v-0.723h-0.933v5.189h0.976v-2.871
	c0-0.436,0.13-0.812,0.392-1.127c0.262-0.312,0.586-0.471,0.975-0.471c0.834,0,1.263,0.424,1.281,1.271v3.195h0.976v-3.262
	c0-0.672-0.173-1.188-0.515-1.553C153.718,28.119,153.229,27.936,152.595,27.936z M161.257,30.234
	c0.77-0.812,1.154-1.568,1.154-2.268c0-0.586-0.219-1.078-0.656-1.48s-0.984-0.605-1.643-0.605c-0.545,0-1.016,0.154-1.418,0.461
	c-0.403,0.307-0.674,0.684-0.815,1.129l0.89,0.359c0.07-0.281,0.227-0.521,0.467-0.719c0.238-0.199,0.524-0.297,0.855-0.297
	c0.391,0,0.706,0.109,0.954,0.338c0.247,0.227,0.37,0.498,0.37,0.814c0,0.354-0.12,0.689-0.357,1.014
	c-0.242,0.318-0.676,0.803-1.305,1.441l-1.874,1.896v0.976h4.617v-0.933h-3.356L161.257,30.234z M166.341,25.881
	c-0.855,0-1.554,0.357-2.098,1.07c-0.545,0.715-0.815,1.621-0.815,2.723c0,1.088,0.271,1.994,0.815,2.721
	c0.544,0.713,1.242,1.07,2.098,1.07c0.854,0,1.553-0.357,2.096-1.07c0.543-0.727,0.816-1.633,0.816-2.721
	c0-1.094-0.273-1.998-0.816-2.711C167.894,26.242,167.194,25.881,166.341,25.881z M167.728,31.727
	c-0.347,0.537-0.809,0.809-1.387,0.809c-0.58,0-1.043-0.268-1.388-0.799c-0.354-0.541-0.53-1.229-0.53-2.062
	c0-0.834,0.178-1.521,0.53-2.055c0.345-0.537,0.808-0.806,1.388-0.806c0.578,0,1.04,0.269,1.387,0.806
	c0.354,0.534,0.529,1.221,0.529,2.055C168.257,30.498,168.081,31.184,167.728,31.727z M170.037,27.047l0.37,0.826l1.408-0.615v6.037
	h0.974v-7.244h-0.625L170.037,27.047z M177.812,29.504v-0.043c0.282-0.184,0.51-0.41,0.686-0.678
	c0.172-0.268,0.259-0.551,0.259-0.848c0-0.586-0.209-1.076-0.626-1.473c-0.406-0.389-0.938-0.584-1.587-0.584
	s-1.183,0.195-1.589,0.584c-0.416,0.396-0.625,0.887-0.625,1.473c0,0.297,0.086,0.58,0.26,0.848
	c0.172,0.268,0.398,0.494,0.684,0.678v0.043c-0.381,0.184-0.674,0.434-0.879,0.748c-0.205,0.312-0.309,0.66-0.309,1.041
	c0,0.621,0.236,1.137,0.71,1.547c0.479,0.416,1.062,0.625,1.748,0.625c0.685,0,1.269-0.209,1.747-0.625
	c0.472-0.41,0.71-0.926,0.71-1.547c0-0.381-0.104-0.729-0.31-1.041C178.485,29.938,178.192,29.688,177.812,29.504z M175.661,27.111
	c0.227-0.199,0.52-0.297,0.88-0.297c0.358,0,0.651,0.098,0.879,0.297c0.226,0.197,0.339,0.465,0.339,0.803
	c0,0.34-0.113,0.613-0.339,0.822c-0.228,0.209-0.521,0.311-0.879,0.311c-0.36,0-0.653-0.102-0.88-0.311s-0.34-0.482-0.34-0.822
	C175.321,27.576,175.435,27.309,175.661,27.111z M177.89,31.76c-0.072,0.154-0.175,0.291-0.306,0.408
	c-0.131,0.115-0.285,0.205-0.46,0.27c-0.178,0.064-0.373,0.098-0.583,0.098c-0.212,0-0.406-0.031-0.584-0.098
	c-0.175-0.062-0.329-0.152-0.46-0.27s-0.232-0.254-0.307-0.408c-0.074-0.156-0.111-0.328-0.111-0.52
	c0-0.359,0.138-0.664,0.412-0.912c0.291-0.244,0.64-0.369,1.05-0.369c0.409,0,0.754,0.125,1.037,0.369
	c0.282,0.242,0.424,0.545,0.424,0.912C178.002,31.432,177.965,31.604,177.89,31.76z"/>
<g>
	<path fill="#FFFFFF" d="M123.58,16.755V3.374h4.841c1.059,0,1.968,0.348,2.729,1.046c0.759,0.685,1.14,1.551,1.14,2.598
		c0,1.321-0.604,2.249-1.813,2.785v0.075c0.687,0.224,1.235,0.614,1.646,1.168s0.617,1.187,0.617,1.896
		c0,1.097-0.399,2.007-1.196,2.729c-0.772,0.722-1.727,1.083-2.859,1.083H123.58z M125.299,5.018v4.093h3.122
		c0.61,0,1.121-0.206,1.532-0.617c0.412-0.423,0.617-0.903,0.617-1.439c0-0.523-0.199-0.997-0.6-1.42
		c-0.398-0.411-0.89-0.617-1.475-0.617H125.299z M125.299,10.718v4.392h3.458c0.624,0,1.153-0.217,1.588-0.654
		c0.425-0.436,0.636-0.953,0.636-1.551c0-0.585-0.217-1.096-0.654-1.532c-0.435-0.436-0.983-0.654-1.644-0.654H125.299z"/>
	<path fill="#FFFFFF" d="M136.606,4.438c0,0.337-0.118,0.624-0.354,0.86c-0.237,0.236-0.523,0.355-0.86,0.355
		s-0.624-0.119-0.859-0.355c-0.237-0.237-0.354-0.523-0.354-0.86c0-0.336,0.117-0.623,0.354-0.859
		c0.235-0.236,0.522-0.355,0.859-0.355s0.623,0.119,0.86,0.355C136.488,3.816,136.606,4.103,136.606,4.438z M136.252,7.598v9.157
		h-1.72V7.598H136.252z"/>
	<path fill="#FFFFFF" d="M145.446,16.755h-7.402V15.26l5.215-6.093h-5.064V7.598h7.177v1.495l-5.213,6.093h5.288V16.755z"/>
	<path fill="#FFFFFF" d="M149.108,11.017v5.738h-1.72V3.374h7.812v1.644h-6.093v4.393h5.495v1.606H149.108z"/>
	<path fill="#FFFFFF" d="M160.396,17.054c-1.346,0-2.455-0.461-3.326-1.382c-0.873-0.922-1.308-2.087-1.308-3.495
		c0-1.396,0.423-2.558,1.27-3.486c0.848-0.928,1.932-1.392,3.253-1.392c1.357,0,2.438,0.438,3.241,1.317
		c0.805,0.878,1.206,2.109,1.206,3.691l-0.018,0.187h-7.197c0.025,0.896,0.325,1.62,0.897,2.167
		c0.573,0.549,1.259,0.823,2.056,0.823c1.097,0,1.956-0.548,2.58-1.645l1.533,0.748c-0.412,0.772-0.982,1.377-1.711,1.813
		C162.145,16.835,161.318,17.054,160.396,17.054z M157.648,11.074h5.253c-0.052-0.636-0.309-1.162-0.775-1.58
		c-0.469-0.417-1.094-0.626-1.88-0.626c-0.647,0-1.205,0.199-1.672,0.598C158.107,9.865,157.799,10.4,157.648,11.074z"/>
	<path fill="#FFFFFF" d="M173.405,14.213c0,0.797-0.35,1.47-1.047,2.019c-0.699,0.548-1.575,0.822-2.636,0.822
		c-0.923,0-1.732-0.239-2.429-0.719c-0.699-0.479-1.197-1.112-1.496-1.896l1.532-0.655c0.226,0.549,0.551,0.976,0.981,1.28
		c0.431,0.306,0.9,0.458,1.411,0.458c0.549,0,1.006-0.119,1.374-0.355c0.367-0.237,0.55-0.517,0.55-0.841
		c0-0.585-0.447-1.015-1.344-1.29l-1.57-0.393c-1.782-0.449-2.674-1.308-2.674-2.579c0-0.835,0.341-1.505,1.02-2.009
		c0.678-0.505,1.548-0.756,2.606-0.756c0.81,0,1.543,0.193,2.196,0.579c0.654,0.386,1.113,0.903,1.375,1.551l-1.533,0.636
		c-0.176-0.386-0.459-0.688-0.852-0.906s-0.83-0.327-1.317-0.327c-0.447,0-0.85,0.112-1.204,0.336
		c-0.356,0.225-0.532,0.499-0.532,0.822c0,0.524,0.491,0.897,1.475,1.122l1.385,0.355C172.495,11.915,173.405,12.83,173.405,14.213z
		"/>
	<path fill="#FFFFFF" d="M178.43,16.905c-0.748,0-1.365-0.23-1.858-0.692c-0.492-0.461-0.745-1.103-0.757-1.925V9.167h-1.606V7.598
		h1.606V4.794h1.719v2.804h2.244v1.569h-2.244v4.561c0,0.611,0.118,1.025,0.355,1.243c0.237,0.218,0.505,0.327,0.803,0.327
		c0.137,0,0.271-0.016,0.401-0.046c0.131-0.031,0.253-0.072,0.365-0.122L180,16.662C179.553,16.823,179.029,16.905,178.43,16.905z"
		/>
</g>
<g>
	<path fill="#FFFFFF" d="M112.695,12.213c0.197-0.003,0.392-0.017,0.583-0.039c0.061-0.007,0.118-0.02,0.178-0.029
		c0.13-0.019,0.261-0.038,0.388-0.065c0.073-0.016,0.146-0.039,0.218-0.057c0.109-0.028,0.222-0.055,0.328-0.09
		c0.077-0.025,0.151-0.056,0.228-0.083c0.1-0.037,0.2-0.072,0.298-0.114c0.075-0.033,0.148-0.071,0.223-0.106
		c0.093-0.045,0.187-0.089,0.278-0.139c0.072-0.04,0.141-0.084,0.212-0.127c0.088-0.053,0.176-0.105,0.261-0.163
		c0.068-0.046,0.134-0.097,0.2-0.146c0.082-0.06,0.164-0.121,0.242-0.185c0.064-0.053,0.125-0.108,0.188-0.164
		c0.075-0.067,0.15-0.135,0.222-0.206c0.06-0.059,0.116-0.119,0.174-0.181c0.068-0.073,0.137-0.147,0.2-0.225
		c0.054-0.064,0.105-0.13,0.156-0.196c0.062-0.08,0.122-0.16,0.18-0.243c0.048-0.068,0.093-0.139,0.138-0.208
		c0.054-0.086,0.106-0.173,0.157-0.261c0.041-0.073,0.08-0.146,0.118-0.221c0.045-0.09,0.09-0.183,0.132-0.276
		c0.034-0.077,0.066-0.154,0.098-0.232c0.037-0.096,0.072-0.192,0.105-0.291c0.026-0.08,0.053-0.16,0.076-0.241
		c0.028-0.1,0.054-0.201,0.077-0.303c0.02-0.083,0.038-0.166,0.053-0.249c0.02-0.104,0.034-0.208,0.049-0.313
		c0.011-0.085,0.021-0.171,0.028-0.259c0.004-0.038,0.004-0.076,0.006-0.114h-3.068c-0.004,0.034-0.017,0.065-0.022,0.098
		c-0.014,0.082-0.034,0.161-0.055,0.24c-0.024,0.096-0.053,0.19-0.087,0.282c-0.029,0.075-0.061,0.146-0.094,0.217
		c-0.043,0.09-0.091,0.176-0.142,0.26c-0.041,0.066-0.082,0.13-0.128,0.193c-0.06,0.08-0.122,0.156-0.189,0.229
		c-0.051,0.056-0.101,0.112-0.156,0.163c-0.073,0.07-0.153,0.133-0.234,0.194c-0.059,0.044-0.115,0.09-0.177,0.13
		c-0.09,0.058-0.186,0.105-0.281,0.153c-0.062,0.031-0.122,0.066-0.188,0.092c-0.11,0.044-0.226,0.076-0.342,0.106
		c-0.059,0.015-0.113,0.037-0.173,0.049c-0.179,0.035-0.362,0.056-0.551,0.056c-0.706,0-1.371-0.254-1.891-0.72h-0.009l-0.112-0.111
		c-0.697-0.698-1.538-1.199-2.455-1.478c-0.541-0.164-1.109-0.248-1.688-0.251l-0.055,0.001l-0.403,0.042l-0.002-0.017
		c-1.794,0.153-3.351,1.073-4.341,2.421c-0.005,0.006-0.01,0.012-0.014,0.019c-0.094,0.128-0.18,0.26-0.263,0.395
		c-0.019,0.031-0.038,0.062-0.057,0.094c-0.068,0.116-0.131,0.235-0.191,0.356c-0.026,0.053-0.053,0.106-0.076,0.16
		c-0.05,0.106-0.095,0.214-0.138,0.324c-0.027,0.071-0.054,0.142-0.077,0.214c-0.035,0.1-0.066,0.2-0.095,0.301
		c-0.024,0.084-0.047,0.17-0.066,0.255c-0.022,0.095-0.044,0.191-0.062,0.288c-0.018,0.094-0.03,0.188-0.044,0.284
		c-0.012,0.093-0.023,0.187-0.031,0.282c-0.003,0.035-0.004,0.071-0.006,0.106h3.072c0.004-0.034,0.017-0.064,0.021-0.097
		c0.015-0.083,0.035-0.162,0.056-0.241c0.024-0.096,0.053-0.189,0.087-0.28c0.029-0.076,0.061-0.148,0.095-0.221
		c0.042-0.088,0.089-0.173,0.139-0.255c0.042-0.067,0.084-0.133,0.13-0.197c0.058-0.079,0.121-0.153,0.187-0.226
		c0.052-0.058,0.104-0.114,0.159-0.167c0.073-0.068,0.151-0.13,0.231-0.191c0.06-0.045,0.117-0.092,0.181-0.133
		c0.087-0.057,0.182-0.104,0.276-0.151c0.063-0.031,0.124-0.067,0.19-0.094c0.109-0.044,0.224-0.075,0.339-0.106
		c0.059-0.015,0.114-0.038,0.175-0.049c0.178-0.035,0.361-0.056,0.55-0.056c0.707,0,1.371,0.255,1.891,0.722l0.12,0.114v0
		l0.002,0.003l0.001-0.001c0.001,0,0.001,0,0.001,0c0,0,0.001,0.001,0.002,0.001c0.055,0.054,0.113,0.1,0.168,0.151
		c0.25,0.231,0.515,0.441,0.795,0.623c0.029,0.02,0.062,0.036,0.091,0.054c0.289,0.18,0.59,0.338,0.904,0.465
		c0.024,0.01,0.05,0.017,0.075,0.027c0.324,0.125,0.658,0.226,1.002,0.292c0.016,0.003,0.03,0.004,0.046,0.007
		c0.355,0.066,0.72,0.103,1.09,0.103H112.695z"/>
	<path fill="#FFFFFF" d="M103.762,13.494c-0.034-0.091-0.062-0.184-0.087-0.279c-0.021-0.08-0.041-0.159-0.056-0.242
		c-0.005-0.033-0.018-0.064-0.021-0.097h-3.072c0.003,0.039,0.003,0.078,0.006,0.116c0.009,0.09,0.02,0.18,0.031,0.27
		c0.014,0.103,0.028,0.206,0.047,0.307c0.017,0.089,0.035,0.177,0.056,0.264c0.023,0.1,0.049,0.198,0.076,0.295
		c0.025,0.085,0.052,0.17,0.08,0.254c0.032,0.096,0.067,0.19,0.104,0.284c0.032,0.082,0.065,0.163,0.102,0.243
		c0.041,0.091,0.085,0.181,0.131,0.27c0.04,0.078,0.081,0.155,0.124,0.23c0.05,0.086,0.102,0.172,0.155,0.255
		c0.047,0.073,0.094,0.145,0.144,0.216c0.058,0.082,0.118,0.162,0.181,0.241c0.052,0.067,0.104,0.134,0.16,0.199
		c0.064,0.077,0.134,0.15,0.203,0.224c0.058,0.061,0.115,0.123,0.176,0.182c0.073,0.071,0.149,0.138,0.226,0.205
		c0.063,0.055,0.126,0.111,0.191,0.164c0.08,0.064,0.163,0.125,0.246,0.185c0.068,0.049,0.134,0.099,0.204,0.144
		c0.086,0.058,0.176,0.11,0.267,0.163c0.07,0.042,0.141,0.085,0.214,0.124c0.093,0.05,0.19,0.093,0.287,0.139
		c0.073,0.034,0.146,0.07,0.221,0.101c0.102,0.043,0.205,0.078,0.31,0.114c0.074,0.026,0.147,0.056,0.224,0.08
		c0.111,0.034,0.225,0.06,0.338,0.086c0.073,0.019,0.145,0.04,0.219,0.055c0.128,0.025,0.26,0.042,0.392,0.06
		c0.062,0.008,0.121,0.021,0.183,0.027c0.195,0.02,0.393,0.03,0.593,0.03c0.34,0,0.674-0.034,1.002-0.089
		c0.034-0.005,0.067-0.008,0.1-0.015c0.31-0.058,0.612-0.145,0.906-0.25c0.046-0.017,0.092-0.031,0.138-0.049
		c0.283-0.109,0.558-0.244,0.821-0.397c0.047-0.027,0.095-0.056,0.141-0.084c0.259-0.161,0.507-0.341,0.74-0.542
		c0.017-0.015,0.033-0.03,0.05-0.045l-2.173-2.173c-0.028,0.021-0.062,0.038-0.09,0.059c-0.051,0.036-0.104,0.067-0.155,0.1
		c-0.097,0.059-0.195,0.113-0.298,0.16c-0.057,0.026-0.112,0.052-0.171,0.074c-0.109,0.042-0.223,0.075-0.336,0.103
		c-0.054,0.013-0.104,0.03-0.16,0.04c-0.168,0.031-0.34,0.05-0.515,0.05c-0.188,0-0.372-0.021-0.55-0.056
		c-0.061-0.012-0.116-0.034-0.176-0.05c-0.114-0.031-0.229-0.061-0.338-0.105c-0.066-0.027-0.128-0.063-0.192-0.094
		c-0.094-0.047-0.188-0.094-0.274-0.15c-0.064-0.041-0.122-0.088-0.182-0.133c-0.079-0.061-0.157-0.122-0.23-0.19
		c-0.056-0.053-0.107-0.11-0.159-0.167c-0.065-0.073-0.129-0.146-0.187-0.225c-0.046-0.064-0.089-0.13-0.13-0.198
		c-0.05-0.082-0.096-0.167-0.138-0.254C103.822,13.643,103.791,13.569,103.762,13.494z"/>
	<path fill="#FFFFFF" d="M110.895,16.339c0.179-0.208,0.342-0.426,0.488-0.654c0.029-0.045,0.056-0.092,0.083-0.138
		c0.146-0.241,0.28-0.489,0.39-0.747c0-0.001,0.001-0.002,0.001-0.003c0.11-0.259,0.194-0.528,0.267-0.801
		c0.013-0.05,0.027-0.101,0.039-0.151c0.062-0.266,0.104-0.536,0.13-0.811c0.002-0.021,0.002-0.044,0.004-0.065
		c-0.042-0.002-0.083-0.011-0.126-0.014c-0.178-0.011-0.354-0.03-0.529-0.055c-0.073-0.01-0.146-0.019-0.219-0.031
		c-0.242-0.043-0.482-0.096-0.717-0.165c-0.015-0.004-0.028-0.011-0.043-0.015c-0.221-0.067-0.436-0.146-0.646-0.235
		c-0.068-0.028-0.134-0.061-0.201-0.092c-0.162-0.074-0.319-0.155-0.475-0.242c-0.038-0.021-0.078-0.037-0.115-0.059
		c0.021,0.143,0.032,0.288,0.032,0.435c0,0.176-0.02,0.348-0.051,0.517c-0.01,0.053-0.026,0.104-0.039,0.156
		c-0.027,0.115-0.06,0.228-0.102,0.338c-0.022,0.058-0.049,0.113-0.074,0.169c-0.046,0.102-0.099,0.199-0.157,0.295
		c-0.033,0.053-0.065,0.106-0.102,0.158c-0.021,0.028-0.034,0.059-0.056,0.086l2.172,2.174
		C110.863,16.372,110.879,16.355,110.895,16.339z"/>
	<path fill="#FFFFFF" d="M118.481,5.809c-0.008-0.09-0.019-0.18-0.03-0.27c-0.014-0.103-0.028-0.206-0.047-0.307
		c-0.017-0.089-0.036-0.177-0.057-0.264c-0.023-0.1-0.048-0.198-0.075-0.295c-0.025-0.086-0.053-0.17-0.081-0.255
		c-0.031-0.095-0.066-0.189-0.104-0.283c-0.032-0.082-0.066-0.163-0.103-0.243c-0.041-0.091-0.084-0.181-0.13-0.269
		c-0.04-0.078-0.082-0.155-0.124-0.231c-0.05-0.086-0.102-0.171-0.155-0.255c-0.047-0.073-0.095-0.146-0.144-0.216
		c-0.058-0.082-0.118-0.161-0.18-0.239c-0.053-0.068-0.105-0.135-0.162-0.201c-0.064-0.076-0.133-0.149-0.201-0.223
		c-0.059-0.062-0.116-0.123-0.178-0.183c-0.072-0.071-0.148-0.138-0.226-0.205c-0.062-0.055-0.125-0.112-0.19-0.164
		c-0.08-0.064-0.163-0.124-0.246-0.185c-0.068-0.048-0.134-0.099-0.204-0.145c-0.086-0.057-0.177-0.109-0.266-0.162
		c-0.071-0.042-0.142-0.085-0.215-0.124c-0.093-0.05-0.19-0.094-0.286-0.139c-0.073-0.034-0.146-0.07-0.223-0.102
		c-0.101-0.042-0.205-0.077-0.31-0.114c-0.074-0.026-0.147-0.055-0.223-0.079c-0.11-0.033-0.223-0.059-0.334-0.086
		c-0.074-0.018-0.148-0.04-0.224-0.055c-0.124-0.025-0.253-0.041-0.38-0.058c-0.065-0.009-0.129-0.022-0.194-0.029
		c-0.194-0.019-0.392-0.03-0.592-0.03c-0.339,0-0.672,0.034-1,0.09c-0.033,0.005-0.066,0.008-0.099,0.014
		c-0.311,0.058-0.611,0.145-0.906,0.251c-0.046,0.016-0.091,0.031-0.136,0.048c-0.284,0.111-0.56,0.245-0.826,0.399
		c-0.045,0.027-0.09,0.054-0.136,0.082c-0.261,0.162-0.512,0.344-0.748,0.548c-0.016,0.013-0.031,0.028-0.046,0.042l1.11,1.11
		l1.062,1.062c0.027-0.021,0.059-0.036,0.087-0.056c0.051-0.036,0.103-0.067,0.155-0.1c0.096-0.058,0.193-0.111,0.296-0.158
		c0.056-0.026,0.112-0.051,0.17-0.074c0.11-0.042,0.224-0.074,0.338-0.102c0.053-0.013,0.105-0.03,0.159-0.04
		c0.17-0.031,0.343-0.051,0.52-0.051c0.188,0,0.372,0.021,0.551,0.056c0.062,0.012,0.118,0.035,0.178,0.05
		c0.114,0.03,0.228,0.061,0.335,0.104c0.068,0.028,0.131,0.064,0.195,0.097c0.094,0.046,0.186,0.092,0.272,0.147
		c0.064,0.042,0.124,0.089,0.186,0.136c0.078,0.06,0.154,0.119,0.226,0.186c0.058,0.055,0.11,0.113,0.163,0.172
		c0.064,0.071,0.125,0.143,0.183,0.22c0.048,0.064,0.091,0.132,0.134,0.2c0.049,0.082,0.095,0.165,0.136,0.251
		c0.035,0.073,0.067,0.147,0.097,0.224c0.034,0.09,0.062,0.183,0.086,0.278c0.021,0.08,0.042,0.159,0.056,0.241
		c0.006,0.033,0.019,0.064,0.022,0.097h3.068C118.485,5.887,118.484,5.848,118.481,5.809z"/>
	<path fill="#FFFFFF" d="M108.126,2.455c-0.183,0.212-0.349,0.435-0.498,0.668c-0.025,0.04-0.049,0.082-0.073,0.123
		c-0.296,0.486-0.517,1.011-0.66,1.562c-0.012,0.05-0.026,0.1-0.038,0.15c-0.062,0.266-0.104,0.539-0.129,0.814
		c-0.002,0.021-0.003,0.042-0.005,0.062c0.044,0.002,0.086,0.011,0.129,0.013c0.175,0.012,0.348,0.031,0.521,0.056
		c0.075,0.011,0.15,0.019,0.226,0.032c0.24,0.043,0.478,0.096,0.711,0.165c0.024,0.007,0.048,0.018,0.073,0.025
		c0.209,0.064,0.414,0.14,0.614,0.224c0.072,0.031,0.144,0.065,0.215,0.098c0.154,0.072,0.306,0.149,0.455,0.232
		c0.042,0.024,0.086,0.041,0.127,0.065c-0.022-0.143-0.033-0.29-0.033-0.438c0-0.176,0.02-0.348,0.05-0.517
		c0.011-0.055,0.027-0.108,0.04-0.162c0.028-0.113,0.06-0.224,0.101-0.332c0.022-0.06,0.05-0.118,0.076-0.176
		c0.046-0.1,0.097-0.195,0.153-0.289c0.034-0.055,0.066-0.108,0.104-0.161c0.02-0.027,0.034-0.058,0.055-0.085l-2.173-2.173
		C108.152,2.427,108.139,2.44,108.126,2.455z"/>
</g>
</svg>
