<?xml version="1.0" encoding="utf-8"?>
<!-- Generator: Adobe Illustrator 15.1.0, SVG Export Plug-In . SVG Version: 6.00 Build 0)  -->
<!DOCTYPE svg PUBLIC "-//W3C//DTD SVG 1.1//EN" "http://www.w3.org/Graphics/SVG/1.1/DTD/svg11.dtd">
<svg version="1.1" id="Layer_1" xmlns="http://www.w3.org/2000/svg" xmlns:xlink="http://www.w3.org/1999/xlink" x="0px" y="0px"
	 width="150px" height="36px" viewBox="0 0 150 36" enable-background="new 0 0 150 36" xml:space="preserve">
<path fill="#FFFFFF" d="M8.286,16.086l-0.275-0.475l-0.973-1.683l-1.831,3.165l-1.509,2.61h2.496L8.286,16.086z M6.529,13.049
	l-1.34-2.317L0,19.703h2.681L6.529,13.049z M10.135,12.888L2.681,0H0l5.189,8.972l0,0l1.849,3.197l0,0l1.756,3.038L10.135,12.888z
	 M11.461,10.595c0.266-0.46,0.266-1.027,0-1.488L6.195,0H3.699l6.946,12.007L11.461,10.595L11.461,10.595z M16.446,16.755V3.374
	h4.092c2.044,0,3.686,0.617,4.926,1.851c1.239,1.233,1.859,2.847,1.859,4.84c0,2.006-0.62,3.623-1.859,4.85
	c-1.24,1.228-2.882,1.842-4.926,1.842h-4.092V16.755z M18.165,5.018v10.093h2.373c1.559,0,2.785-0.445,3.683-1.337
	c0.896-0.891,1.345-2.127,1.345-3.71c0-1.57-0.448-2.803-1.345-3.7c-0.897-0.897-2.124-1.346-3.683-1.346H18.165z M32.893,17.054
	c-1.347,0-2.455-0.461-3.327-1.383s-1.309-2.088-1.309-3.495c0-1.396,0.424-2.558,1.271-3.486c0.848-0.928,1.932-1.392,3.252-1.392
	c1.358,0,2.439,0.439,3.243,1.317c0.804,0.878,1.205,2.109,1.205,3.691l-0.02,0.187h-7.194c0.024,0.897,0.324,1.62,0.897,2.168
	c0.572,0.548,1.258,0.822,2.056,0.822c1.096,0,1.956-0.548,2.579-1.644l1.531,0.747c-0.41,0.773-0.98,1.377-1.71,1.813
	C34.64,16.836,33.813,17.054,32.893,17.054 M30.145,11.074h5.252c-0.051-0.636-0.308-1.162-0.776-1.58
	c-0.467-0.417-1.093-0.626-1.878-0.626c-0.647,0-1.205,0.201-1.672,0.598C30.604,9.865,30.294,10.4,30.145,11.074 M43.059,16.755
	h-1.72L37.64,7.597h1.868l2.69,7.102h0.038l2.729-7.102h1.832L43.059,16.755z M49.937,11.017v5.738h-1.72V3.374h7.812v1.645h-6.093
	v4.393h5.494v1.606L49.937,11.017L49.937,11.017z M61.225,17.054c-1.346,0-2.456-0.461-3.327-1.383
	c-0.873-0.922-1.309-2.088-1.309-3.495c0-1.396,0.423-2.558,1.271-3.486c0.847-0.928,1.931-1.393,3.251-1.393
	c1.358,0,2.439,0.439,3.243,1.317c0.803,0.878,1.205,2.109,1.205,3.691l-0.019,0.187h-7.195c0.024,0.897,0.324,1.62,0.897,2.168
	c0.572,0.548,1.258,0.822,2.055,0.822c1.097,0,1.956-0.548,2.579-1.644l1.532,0.747c-0.41,0.773-0.98,1.377-1.71,1.813
	C62.972,16.836,62.145,17.054,61.225,17.054 M58.477,11.074h5.252c-0.051-0.636-0.309-1.162-0.776-1.58
	c-0.467-0.417-1.093-0.626-1.878-0.626c-0.647,0-1.205,0.201-1.674,0.598C58.935,9.866,58.627,10.4,58.477,11.074 M74.23,14.213
	c0,0.798-0.349,1.471-1.046,2.019c-0.698,0.548-1.577,0.822-2.636,0.822c-0.922,0-1.731-0.24-2.429-0.72
	c-0.698-0.48-1.196-1.112-1.496-1.897l1.533-0.653c0.224,0.548,0.552,0.975,0.98,1.28c0.431,0.306,0.901,0.458,1.411,0.458
	c0.549,0,1.006-0.118,1.374-0.355c0.367-0.236,0.552-0.516,0.552-0.841c0-0.585-0.448-1.016-1.346-1.29l-1.569-0.392
	c-1.783-0.449-2.673-1.309-2.673-2.58c0-0.834,0.338-1.504,1.018-2.008c0.68-0.505,1.548-0.757,2.607-0.757
	c0.811,0,1.542,0.194,2.196,0.579c0.654,0.387,1.112,0.904,1.373,1.551l-1.532,0.636c-0.174-0.386-0.458-0.688-0.851-0.906
	c-0.392-0.218-0.832-0.327-1.317-0.327c-0.449,0-0.85,0.111-1.206,0.336c-0.354,0.224-0.532,0.499-0.532,0.822
	c0,0.523,0.491,0.897,1.477,1.122l1.383,0.354C73.321,11.915,74.23,12.831,74.23,14.213 M79.258,16.904
	c-0.748,0-1.367-0.23-1.859-0.691c-0.491-0.461-0.744-1.102-0.756-1.925V9.167h-1.606v-1.57h1.606V4.794h1.719v2.803h2.242v1.57
	h-2.242v4.56c0,0.611,0.119,1.025,0.354,1.243c0.237,0.218,0.505,0.328,0.806,0.328c0.138,0,0.271-0.016,0.4-0.047
	c0.125-0.029,0.247-0.069,0.364-0.121l0.542,1.532C80.38,16.823,79.855,16.904,79.258,16.904 M94.544,10.98v1.42h-3.381v3.383
	h-1.421V12.4h-3.383v-1.42h3.383V7.597h1.421v3.383H94.544z M119.855,16.755V3.374h4.093c2.042,0,3.685,0.617,4.925,1.851
	c1.238,1.233,1.859,2.847,1.859,4.84c0,2.006-0.621,3.623-1.859,4.85c-1.24,1.228-2.882,1.842-4.925,1.842h-4.093V16.755
	L119.855,16.755z M121.575,5.018v10.093h2.373c1.557,0,2.784-0.445,3.682-1.337c0.896-0.891,1.347-2.127,1.347-3.71
	c0-1.57-0.449-2.803-1.347-3.7c-0.897-0.897-2.125-1.346-3.683-1.346H121.575z M135.945,7.298c1.271,0,2.272,0.339,3.01,1.019
	c0.734,0.68,1.104,1.611,1.104,2.794v5.644h-1.646v-1.271h-0.074c-0.71,1.047-1.657,1.571-2.842,1.571
	c-1.009,0-1.853-0.299-2.531-0.898c-0.68-0.598-1.019-1.345-1.019-2.243c0-0.947,0.357-1.7,1.074-2.261s1.672-0.841,2.867-0.841
	c1.021,0,1.862,0.188,2.522,0.56V10.98c0-0.598-0.236-1.105-0.71-1.523c-0.477-0.417-1.028-0.625-1.664-0.625
	c-0.959,0-1.721,0.405-2.279,1.215l-1.514-0.954C133.08,7.896,134.312,7.298,135.945,7.298 M133.723,13.952
	c0,0.448,0.189,0.823,0.569,1.121c0.38,0.299,0.825,0.448,1.336,0.448c0.724,0,1.367-0.268,1.935-0.803
	c0.567-0.535,0.853-1.165,0.853-1.887c-0.536-0.424-1.283-0.636-2.243-0.636c-0.695,0-1.277,0.168-1.747,0.505
	C133.956,13.036,133.723,13.454,133.723,13.952 M150,7.597l-5.736,13.194h-1.777l2.134-4.615l-3.774-8.579h1.868l2.729,6.579h0.039
	l2.65-6.579H150L150,7.597z M117.802,8.145h-7.767v3.19h4.438c-0.189,1.031-0.771,1.904-1.645,2.488
	c-0.738,0.495-1.684,0.787-2.793,0.787c-2.146,0-3.967-1.45-4.613-3.398c-0.165-0.496-0.259-1.023-0.259-1.567
	s0.094-1.072,0.259-1.566c0.646-1.949,2.467-3.399,4.613-3.399c1.21,0,2.299,0.416,3.152,1.232l2.362-2.364
	c-1.428-1.331-3.294-2.147-5.517-2.147c-3.225,0-6.014,1.848-7.368,4.542c-0.56,1.114-0.877,2.373-0.877,3.703
	s0.317,2.589,0.877,3.703c1.354,2.695,4.146,4.542,7.368,4.542c2.229,0,4.093-0.738,5.458-1.998c1.558-1.435,2.459-3.549,2.459-6.06
	C117.952,9.247,117.896,8.685,117.802,8.145 M68.717,29.238v0.912h2.754c-0.078,0.74-0.368,1.324-0.869,1.746
	c-0.502,0.424-1.13,0.637-1.885,0.637c-0.827,0-1.525-0.287-2.098-0.859c-0.564-0.578-0.848-1.303-0.848-2.17
	c0-0.869,0.283-1.594,0.848-2.172c0.572-0.572,1.271-0.857,2.098-0.857c0.423,0,0.82,0.078,1.191,0.238
	c0.37,0.158,0.672,0.379,0.905,0.662l0.698-0.699c-0.317-0.359-0.724-0.639-1.218-0.836s-1.02-0.297-1.577-0.297
	c-1.102,0-2.034,0.381-2.797,1.143c-0.763,0.766-1.143,1.703-1.143,2.818s0.38,2.055,1.143,2.816
	c0.763,0.761,1.695,1.145,2.797,1.145c1.15,0,2.079-0.375,2.784-1.123c0.628-0.629,0.943-1.473,0.943-2.531
	c0-0.184-0.019-0.375-0.054-0.57L68.717,29.238L68.717,29.238z M75.675,27.936c-0.749,0-1.363,0.266-1.843,0.791
	c-0.48,0.523-0.721,1.186-0.721,1.975c0,0.801,0.247,1.459,0.742,1.98c0.493,0.521,1.121,0.783,1.883,0.783
	c0.521,0,0.99-0.123,1.404-0.371c0.414-0.246,0.733-0.59,0.969-1.027l-0.868-0.424c-0.354,0.621-0.841,0.936-1.462,0.936
	c-0.452,0-0.84-0.156-1.163-0.469c-0.326-0.312-0.496-0.721-0.51-1.229h4.078l0.01-0.107c0-0.895-0.228-1.594-0.682-2.09
	C77.057,28.186,76.443,27.936,75.675,27.936z M74.181,30.076c0.085-0.383,0.26-0.686,0.524-0.912
	c0.265-0.225,0.581-0.338,0.947-0.338c0.445,0,0.801,0.119,1.062,0.354c0.268,0.238,0.412,0.535,0.439,0.896H74.181z M81.51,27.936
	c-0.771,0-1.408,0.264-1.917,0.785c-0.501,0.521-0.753,1.182-0.753,1.979c0,0.801,0.252,1.459,0.753,1.981
	c0.509,0.521,1.146,0.782,1.917,0.782c0.77,0,1.404-0.262,1.905-0.782c0.509-0.517,0.765-1.177,0.765-1.981
	c0-0.798-0.256-1.457-0.765-1.979C82.914,28.197,82.279,27.936,81.51,27.936z M82.717,32.055c-0.324,0.348-0.728,0.521-1.207,0.521
	c-0.48,0-0.884-0.174-1.207-0.521c-0.326-0.346-0.488-0.797-0.488-1.354c0-0.551,0.162-0.998,0.488-1.346
	c0.331-0.352,0.733-0.527,1.207-0.527c0.473,0,0.875,0.178,1.207,0.527c0.324,0.348,0.487,0.795,0.487,1.346
	C83.204,31.258,83.041,31.709,82.717,32.055z M86.545,28.248c-0.309,0.195-0.51,0.43-0.607,0.705h-0.043v-0.848h-0.934v5.188h0.977
	v-2.857c0-0.396,0.137-0.742,0.406-1.037c0.271-0.297,0.592-0.445,0.958-0.445c0.261,0,0.452,0.025,0.573,0.074l0.296-0.943
	c-0.198-0.084-0.438-0.127-0.722-0.127C87.152,27.957,86.852,28.055,86.545,28.248z M92.523,28.826H92.48
	c-0.185-0.275-0.435-0.492-0.746-0.652c-0.314-0.158-0.655-0.238-1.022-0.238c-0.678,0-1.26,0.271-1.747,0.807
	c-0.479,0.535-0.72,1.189-0.72,1.959c0,0.771,0.239,1.428,0.72,1.973c0.487,0.527,1.069,0.793,1.747,0.793
	c0.367,0,0.708-0.08,1.022-0.236c0.312-0.16,0.562-0.375,0.746-0.65h0.043v0.496c0,0.559-0.148,0.996-0.445,1.312
	c-0.296,0.317-0.709,0.479-1.239,0.479c-0.345,0-0.649-0.094-0.909-0.275c-0.263-0.186-0.445-0.43-0.552-0.73l-0.922,0.381
	c0.078,0.227,0.19,0.432,0.339,0.613c0.148,0.186,0.327,0.346,0.535,0.479s0.439,0.236,0.693,0.312
	c0.254,0.074,0.525,0.11,0.813,0.11c0.791,0,1.429-0.239,1.907-0.721c0.472-0.474,0.709-1.125,0.709-1.959v-4.968H92.52v0.72h0.004
	V28.826z M92.046,32.055c-0.303,0.348-0.694,0.521-1.175,0.521c-0.467,0-0.857-0.178-1.176-0.531
	c-0.317-0.346-0.479-0.793-0.479-1.346c0-0.541,0.159-0.99,0.479-1.344c0.315-0.354,0.709-0.529,1.176-0.529
	c0.473,0,0.865,0.178,1.175,0.529c0.317,0.354,0.478,0.803,0.478,1.344C92.523,31.258,92.363,31.709,92.046,32.055z M96.855,27.936
	c-0.75,0-1.363,0.266-1.844,0.791c-0.48,0.523-0.722,1.186-0.722,1.975c0,0.801,0.246,1.459,0.742,1.98
	c0.491,0.521,1.12,0.783,1.884,0.783c0.521,0,0.99-0.123,1.402-0.371c0.414-0.246,0.734-0.59,0.971-1.027l-0.869-0.424
	c-0.354,0.621-0.84,0.936-1.461,0.936c-0.453,0-0.841-0.156-1.165-0.469c-0.323-0.312-0.495-0.721-0.509-1.229h4.076l0.012-0.107
	c0-0.895-0.229-1.594-0.684-2.09C98.236,28.186,97.624,27.936,96.855,27.936z M95.361,30.076c0.084-0.383,0.26-0.686,0.522-0.912
	c0.267-0.225,0.58-0.338,0.948-0.338c0.443,0,0.8,0.119,1.062,0.354c0.266,0.238,0.41,0.535,0.438,0.896H95.361z M107.043,25.713
	h-5.211v0.932h2.118v6.65h0.975v-6.65h2.118V25.713z M109.414,27.936c-0.77,0-1.408,0.264-1.916,0.785
	c-0.502,0.521-0.752,1.182-0.752,1.979c0,0.801,0.25,1.459,0.752,1.981c0.508,0.521,1.146,0.782,1.916,0.782
	c0.771,0,1.406-0.262,1.906-0.782c0.509-0.517,0.764-1.177,0.764-1.981c0-0.798-0.255-1.457-0.764-1.979
	C110.82,28.197,110.186,27.936,109.414,27.936z M110.621,32.055c-0.323,0.348-0.727,0.521-1.207,0.521
	c-0.479,0-0.882-0.174-1.207-0.521c-0.324-0.346-0.486-0.797-0.486-1.354c0-0.551,0.162-0.998,0.486-1.346
	c0.331-0.352,0.734-0.527,1.207-0.527c0.475,0,0.876,0.178,1.207,0.527c0.326,0.348,0.486,0.795,0.486,1.346
	C111.107,31.258,110.947,31.709,110.621,32.055z M118.078,32.023h-0.012l-1.28-3.918h-1.007l-1.281,3.918h-0.01l-1.154-3.918h-1.018
	l1.674,5.188h0.984l1.279-3.98l1.292,3.98h0.996l1.673-5.188h-0.994L118.078,32.023z M123.469,27.936
	c-0.332,0-0.65,0.086-0.959,0.256c-0.307,0.168-0.535,0.383-0.683,0.637h-0.043v-0.723h-0.933v5.189h0.976v-2.871
	c0-0.436,0.13-0.812,0.392-1.127c0.262-0.312,0.586-0.471,0.975-0.471c0.834,0,1.263,0.424,1.281,1.271v3.195h0.976v-3.262
	c0-0.672-0.173-1.188-0.515-1.553C124.592,28.119,124.104,27.936,123.469,27.936z M132.131,30.234
	c0.77-0.812,1.154-1.568,1.154-2.268c0-0.586-0.219-1.078-0.656-1.48s-0.984-0.605-1.643-0.605c-0.545,0-1.016,0.154-1.418,0.461
	c-0.403,0.307-0.674,0.684-0.815,1.129l0.89,0.359c0.07-0.281,0.227-0.521,0.467-0.719c0.238-0.199,0.524-0.297,0.855-0.297
	c0.391,0,0.706,0.109,0.954,0.338c0.247,0.227,0.37,0.498,0.37,0.814c0,0.354-0.12,0.689-0.357,1.014
	c-0.242,0.318-0.676,0.803-1.305,1.441l-1.874,1.896v0.976h4.617v-0.933h-3.356L132.131,30.234z M137.215,25.881
	c-0.855,0-1.554,0.357-2.098,1.07c-0.545,0.715-0.815,1.621-0.815,2.723c0,1.088,0.271,1.994,0.815,2.721
	c0.544,0.713,1.242,1.07,2.098,1.07c0.854,0,1.553-0.357,2.096-1.07c0.543-0.727,0.816-1.633,0.816-2.721
	c0-1.094-0.273-1.998-0.816-2.711C138.768,26.242,138.068,25.881,137.215,25.881z M138.602,31.727
	c-0.347,0.537-0.809,0.809-1.387,0.809c-0.58,0-1.043-0.268-1.388-0.799c-0.354-0.541-0.53-1.229-0.53-2.062
	c0-0.834,0.178-1.521,0.53-2.055c0.345-0.537,0.808-0.806,1.388-0.806c0.578,0,1.04,0.269,1.387,0.806
	c0.354,0.534,0.529,1.221,0.529,2.055C139.131,30.498,138.955,31.184,138.602,31.727z M140.911,27.047l0.37,0.826l1.408-0.615v6.037
	h0.974v-7.244h-0.625L140.911,27.047z M148.686,29.504v-0.043c0.282-0.184,0.51-0.41,0.686-0.678
	c0.172-0.268,0.259-0.551,0.259-0.848c0-0.586-0.209-1.076-0.626-1.473c-0.406-0.389-0.938-0.584-1.587-0.584
	s-1.183,0.195-1.589,0.584c-0.416,0.396-0.625,0.887-0.625,1.473c0,0.297,0.086,0.58,0.26,0.848
	c0.172,0.268,0.398,0.494,0.684,0.678v0.043c-0.381,0.184-0.674,0.434-0.879,0.748c-0.205,0.312-0.309,0.66-0.309,1.041
	c0,0.621,0.236,1.137,0.71,1.547c0.479,0.416,1.062,0.625,1.748,0.625c0.685,0,1.269-0.209,1.747-0.625
	c0.472-0.41,0.71-0.926,0.71-1.547c0-0.381-0.104-0.729-0.31-1.041C149.359,29.938,149.066,29.688,148.686,29.504z M146.535,27.111
	c0.227-0.199,0.52-0.297,0.88-0.297c0.358,0,0.651,0.098,0.879,0.297c0.226,0.197,0.339,0.465,0.339,0.803
	c0,0.34-0.113,0.613-0.339,0.822c-0.228,0.209-0.521,0.311-0.879,0.311c-0.36,0-0.653-0.102-0.88-0.311s-0.34-0.482-0.34-0.822
	C146.195,27.576,146.309,27.309,146.535,27.111z M148.764,31.76c-0.072,0.154-0.175,0.291-0.306,0.408
	c-0.131,0.115-0.285,0.205-0.46,0.27c-0.178,0.064-0.373,0.098-0.583,0.098c-0.212,0-0.406-0.031-0.584-0.098
	c-0.175-0.062-0.329-0.152-0.46-0.27s-0.232-0.254-0.307-0.408c-0.074-0.156-0.111-0.328-0.111-0.52
	c0-0.359,0.138-0.664,0.412-0.912c0.291-0.244,0.64-0.369,1.05-0.369c0.409,0,0.754,0.125,1.037,0.369
	c0.282,0.242,0.424,0.545,0.424,0.912C148.876,31.432,148.839,31.604,148.764,31.76z"/>
</svg>
