<?xml version="1.0" encoding="utf-8"?>
<!-- Generator: Adobe Illustrator 15.1.0, SVG Export Plug-In . SVG Version: 6.00 Build 0)  -->
<!DOCTYPE svg PUBLIC "-//W3C//DTD SVG 1.1//EN" "http://www.w3.org/Graphics/SVG/1.1/DTD/svg11.dtd">
<svg version="1.1" id="Layer_1" xmlns="http://www.w3.org/2000/svg" xmlns:xlink="http://www.w3.org/1999/xlink" x="0px" y="0px"
	 width="178px" height="210px" viewBox="0 0 178 210" enable-background="new 0 0 178 210" xml:space="preserve">
<g>
	<path fill="#3060B8" d="M177.296,55.737C177.755,49.905,178,43.97,178,37.925c0-13.146-1.179-25.79-3.371-37.925H0v35.122h174.632
		C175.841,41.835,176.731,48.712,177.296,55.737z"/>
	<path fill="#3060B8" d="M84.677,106.846c-5.905,8.03-13.257,15.062-21.886,20.838l20.578,15.978
		c8.234-10.629,13.873-23.095,16.417-36.815H84.677z"/>
	<path fill="#132EE7" d="M0,71.727v35.119h84.677C92.21,96.596,97.38,84.718,99.79,71.727H0z"/>
	<path fill="#132EE7" d="M177.296,55.737c-3.81,48.654-23.275,89.648-54.584,118.47l-39.343-30.546
		c-5.676,7.322-12.57,13.782-20.582,19.146l59.925,46.524C157.771,177.053,178,129.515,178,73.051
		C178,67.178,177.752,61.41,177.296,55.737z"/>
	<path opacity="0.35" fill="#FFFFFF" d="M177.296,55.737c-0.564-7.025-1.455-13.901-2.664-20.615H0v36.605h99.79
		c-2.41,12.991-7.58,24.869-15.113,35.119h15.109c-2.544,13.721-8.183,26.187-16.417,36.815l39.343,30.546
		C154.021,145.385,173.486,104.391,177.296,55.737z"/>
	<path fill="#4285F4" d="M177.296,55.737c-0.564-7.025-1.455-13.901-2.664-20.615H0v36.605h99.79
		c-2.41,12.991-7.58,24.869-15.113,35.119h15.109c-2.544,13.721-8.183,26.187-16.417,36.815l39.343,30.546
		C154.021,145.385,173.486,104.391,177.296,55.737z"/>
</g>
</svg>
