<?xml version="1.0" encoding="utf-8"?>
<!-- Generator: Adobe Illustrator 15.1.0, SVG Export Plug-In . SVG Version: 6.00 Build 0)  -->
<!DOCTYPE svg PUBLIC "-//W3C//DTD SVG 1.1//EN" "http://www.w3.org/Graphics/SVG/1.1/DTD/svg11.dtd">
<svg version="1.1" id="Layer_1" xmlns="http://www.w3.org/2000/svg" xmlns:xlink="http://www.w3.org/1999/xlink" x="0px" y="0px"
	 width="313px" height="150px" viewBox="0 0 313 150" enable-background="new 0 0 313 150" xml:space="preserve">
<g>
	<path fill="#58586E" d="M61.854,149.966c0.424-1.274,0.875-2.536,1.343-3.791h-6.23L61.854,149.966z"/>
	<path fill="#58586E" d="M110.966,17.042h85.492h0.598h46.46c-3.236-1.529-6.529-2.969-9.885-4.305h-36.575h-0.598h-85.492h-0.599
		H97.896c-3.417,1.339-6.784,2.771-10.1,4.305h22.571H110.966z"/>
	<path fill="#58586E" d="M197.056,2.692h0.699C187.4,0.928,176.624,0,165.447,0c-10.748,0-21.273,0.936-31.517,2.692h62.527H197.056
		z"/>
	<path fill="#58586E" d="M24.278,98.826H1.666C1.108,99.882,0.539,100.93,0,101.997l1.461,1.134h22.816h0.599h66.976
		c1.583-1.483,3.208-2.915,4.872-4.305H24.877H24.278z"/>
	<path fill="#58586E" d="M233.482,98.826c0.921,0.819,1.844,1.642,2.741,2.5l2.499-2.5H233.482z"/>
	<path fill="#58586E" d="M197.056,74.434h66.062l4.303-4.303h-70.364h-0.598h-85.492h-0.599h-85.49h-0.599h-3.91
		c-1.123,1.415-2.215,2.854-3.298,4.303h7.208h0.599h85.49h0.599h41.55c4.241-0.521,8.554-0.797,12.932-0.797
		c4.515,0,8.946,0.283,13.297,0.797h17.714H197.056z"/>
	<path fill="#58586E" d="M101.701,45.738h8.666h0.599h57.093h19.729h8.67h0.598h86.089v-3.024c-0.506-0.432-1.021-0.853-1.533-1.28
		h-84.556h-0.598h-8.67h-19.729h-57.093h-0.599h-8.666H81.972H48.754c-1.726,1.405-3.428,2.838-5.104,4.304h38.322H101.701z"/>
	<path fill="#58586E" d="M253.072,84.478H212.51c2.591,1.312,5.116,2.757,7.592,4.304h28.666L253.072,84.478z"/>
	<path fill="#58586E" d="M110.367,84.478h-85.49h-0.599H10.075c-0.921,1.42-1.817,2.858-2.7,4.304h16.902h0.599h85.49h0.502
		c2.576-1.537,5.216-2.979,7.92-4.304h-7.823H110.367z"/>
	<path fill="#58586E" d="M110.966,60.086h85.492h0.598h80.409l4.303-4.304h-84.712h-0.598h-85.492h-0.599H33.011
		c-1.378,1.412-2.73,2.848-4.062,4.304h81.419H110.966z"/>
	<path fill="#58586E" d="M101.701,31.388h8.666h0.599h57.093h19.729h8.67h0.598h71.344c-2.145-1.481-4.324-2.915-6.536-4.303
		h-64.808h-0.598h-8.67h-19.729h-57.093h-0.599h-8.666H81.972H69.026c-2.274,1.392-4.524,2.818-6.733,4.303h19.679H101.701z"/>
	<path fill="#58586E" d="M38.463,131.825H69.74c0.785-1.451,1.6-2.888,2.448-4.303H32.915L38.463,131.825z"/>
	<path fill="#58586E" d="M56.966,146.175h6.23c0.54-1.448,1.104-2.884,1.701-4.305h-13.48L56.966,146.175z"/>
	<path fill="#58586E" d="M24.877,113.174h-0.599h-8.669h-1.195l5.55,4.306h4.314h0.599h54.095c1.103-1.461,2.231-2.902,3.401-4.306
		h-0.401H24.877z"/>
	<g>
		<path fill="#9697AE" d="M140.82,17.042h85.494h0.597h46.46c-3.237-1.529-6.529-2.969-9.886-4.305h-36.574h-0.597H140.82h-0.597
			H127.75c-3.416,1.339-6.785,2.771-10.098,4.305h22.571H140.82z"/>
		<path fill="#9697AE" d="M226.911,2.692h0.697C217.253,0.928,206.48,0,195.302,0c-10.749,0-21.272,0.936-31.517,2.692h62.529
			H226.911z"/>
		<path fill="#9697AE" d="M266.079,101.326l2.499-2.5h-5.24C264.259,99.646,265.181,100.468,266.079,101.326z"/>
		<path fill="#9697AE" d="M54.135,98.826H31.521c-0.557,1.056-1.127,2.104-1.665,3.171l1.46,1.134h22.818h0.597h66.977
			c1.58-1.483,3.207-2.915,4.871-4.305H54.732H54.135z"/>
		<path fill="#9697AE" d="M226.314,70.131H140.82h-0.597H54.732h-0.597h-3.912c-1.123,1.415-2.217,2.854-3.299,4.303h7.211h0.597
			h238.24l4.304-4.303h-70.364H226.314z"/>
		<path fill="#9697AE" d="M311.468,41.434h-84.557h-0.597h-8.669h-19.73H140.82h-0.597h-8.669h-19.729H78.609
			c-1.728,1.405-3.43,2.838-5.104,4.304h38.319h19.729h8.669h0.597h57.095h19.73h8.669h0.597H313v-3.024
			C312.493,42.281,311.978,41.86,311.468,41.434z"/>
		<path fill="#9697AE" d="M140.224,84.478H54.732h-0.597H39.931c-0.922,1.42-1.816,2.858-2.699,4.304h16.903h0.597h85.492h0.501
			c2.576-1.537,5.216-2.979,7.92-4.304h-7.824H140.224z"/>
		<path fill="#9697AE" d="M249.958,88.781h28.665l4.304-4.304h-40.56C244.957,85.789,247.483,87.234,249.958,88.781z"/>
		<path fill="#9697AE" d="M226.314,55.782H140.82h-0.597H62.865c-1.377,1.412-2.729,2.848-4.064,4.304h81.423h0.597h85.494h0.597
			h80.409l4.302-4.304h-84.711H226.314z"/>
		<path fill="#9697AE" d="M131.555,31.388h8.669h0.597h57.095h19.73h8.669h0.597h71.344c-2.146-1.481-4.324-2.915-6.537-4.303
			h-64.807h-0.597h-8.669h-19.73H140.82h-0.597h-8.669h-19.729H98.882c-2.276,1.392-4.526,2.818-6.734,4.303h19.678H131.555z"/>
		<path fill="#9697AE" d="M68.318,131.825h31.275c0.787-1.451,1.601-2.888,2.45-4.303H62.77L68.318,131.825z"/>
		<path fill="#9697AE" d="M86.821,146.175l4.888,3.791c0.425-1.274,0.875-2.536,1.343-3.791c0.54-1.448,1.104-2.884,1.7-4.305
			h-13.48L86.821,146.175z"/>
		<path fill="#9697AE" d="M54.732,113.174h-0.597h-8.67h-1.195l5.55,4.306h4.315h0.597h54.095c1.102-1.461,2.23-2.902,3.401-4.306
			h-0.403H54.732z"/>
	</g>
</g>
</svg>
