<?xml version="1.0" encoding="utf-8"?>
<!-- Generator: Adobe Illustrator 15.1.0, SVG Export Plug-In . SVG Version: 6.00 Build 0)  -->
<!DOCTYPE svg PUBLIC "-//W3C//DTD SVG 1.1//EN" "http://www.w3.org/Graphics/SVG/1.1/DTD/svg11.dtd">
<svg version="1.1" id="Layer_1" xmlns="http://www.w3.org/2000/svg" xmlns:xlink="http://www.w3.org/1999/xlink" x="0px" y="0px"
	 width="104px" height="167px" viewBox="0 0 104 167" enable-background="new 0 0 104 167" xml:space="preserve">
<path fill="#F6B917" d="M74.281,100.16l-0.893-4.973c-0.602-3.814-1.01-7.686-1.182-11.603l-0.085-4.973
	c0.021-3.91,0.271-7.781,0.729-11.604l0.698-4.971c0.662-3.94,1.554-7.809,2.632-11.602l1.192-4.972l-14.96-11.599l-6.408-4.971
	L41.044,17.29h-0.137c0.01-0.026,0.024-0.052,0.035-0.079L18.751,0C6.812,23.796,0,50.717,0,79.159
	c0,28.45,6.812,55.368,18.751,79.167l17.251-13.379c-0.006-0.014-0.008-0.025-0.014-0.039h0.061l14.96-11.602l6.409-4.973
	l14.961-11.604l4.979-4.973C76.135,107.977,75.094,104.107,74.281,100.16z"/>
<g>
	<path fill="none" d="M45.112,8.287c-0.668,1.332-1.317,2.678-1.955,4.031h7.151L45.112,8.287z"/>
	<polygon fill="none" points="56.006,28.894 71.682,28.894 56.719,17.29 41.044,17.29 	"/>
	<path fill="none" d="M45.112,166.613l0.2-0.158h-0.276C45.061,166.508,45.085,166.561,45.112,166.613z"/>
	<polygon fill="none" points="36.049,144.908 73.094,144.908 88.057,133.307 51.009,133.307 	"/>
	<path fill="none" d="M42.65,161.486h9.074l14.961-11.605H37.788C39.278,153.816,40.896,157.689,42.65,161.486z"/>
	<path fill="#DB4437" d="M56.006,28.894h-19.63c-0.581,1.645-1.137,3.303-1.67,4.971h27.708L56.006,28.894z"/>
	<path fill="#221F1F" d="M41.044,17.29l-0.102-0.079c-0.011,0.026-0.025,0.052-0.035,0.079H41.044z"/>
	<path fill="#DB4437" d="M32.421,133.307h18.587l6.409-4.971H31.16C31.557,130.002,31.979,131.66,32.421,133.307z"/>
	<path fill="#221F1F" d="M35.988,144.908c0.006,0.014,0.008,0.025,0.014,0.039l0.047-0.039H35.988z"/>
	<path fill="none" d="M73.551,62.041h26.77v4.971H72.852c-0.457,3.821-0.707,7.692-0.729,11.603h26.738
		C99.6,70.106,101.377,61.83,104,53.957l-4.541-3.518H76.182C75.104,54.232,74.213,58.1,73.551,62.041z"/>
	<polygon fill="none" points="77.375,45.467 93.051,45.467 78.092,33.864 62.414,33.864 	"/>
	<path fill="none" d="M73.389,95.188h25.396c-0.197-2.562-0.312-5.143-0.312-7.742c0-1.289,0.033-2.572,0.08-3.856H72.209
		C72.381,87.504,72.789,91.373,73.389,95.188z"/>
	<path fill="none" d="M74.281,100.16c0.812,3.947,1.854,7.816,3.076,11.602h22.963v4.973H72.379l-14.961,11.604h37.047l9.535-7.396
		c-2.227-6.674-3.838-13.635-4.73-20.779L74.281,100.16L74.281,100.16z"/>
	<path fill="#DB4437" d="M73.551,62.041H28.202c-0.239,1.65-0.458,3.307-0.651,4.971h45.301
		C73.049,65.345,73.275,63.685,73.551,62.041z"/>
	<path fill="#DB4437" d="M77.641,45.67l-0.266-0.203H31.428c-0.405,1.648-0.785,3.306-1.142,4.972h45.896
		C76.637,48.836,77.115,47.242,77.641,45.67z"/>
	<path fill="#DB4437" d="M26.548,95.188c0.072,1.664,0.169,3.322,0.287,4.975h47.446c-0.34-1.646-0.629-3.307-0.893-4.975H26.548z"
		/>
	<path fill="#DB4437" d="M28.818,116.734h43.561l5.262-4.078c-0.102-0.297-0.186-0.6-0.283-0.896H28.055
		C28.286,113.426,28.542,115.084,28.818,116.734z"/>
	<g>
		<path d="M100.32,67.012v-4.971H73.55c-0.274,1.645-0.502,3.305-0.698,4.971H100.32z"/>
		<polygon points="62.414,33.864 78.092,33.864 71.682,28.894 56.006,28.894 		"/>
		<path d="M77.641,45.67c-0.523,1.572-1.004,3.167-1.459,4.769h23.277l-6.408-4.972H77.375L77.641,45.67z"/>
		<path d="M56.719,17.29l-6.41-4.972h-7.151c-0.76,1.619-1.5,3.248-2.216,4.893l0.102,0.079H56.719z"/>
		<path d="M45.036,166.455h0.276l6.412-4.969H42.65C43.422,163.156,44.214,164.814,45.036,166.455z"/>
		<polygon points="51.009,133.307 88.057,133.307 94.465,128.336 57.418,128.336 		"/>
		<path d="M74.281,100.16H99.27c-0.207-1.646-0.357-3.305-0.484-4.973H73.389C73.652,96.855,73.941,98.516,74.281,100.16z"/>
		<path d="M36.002,144.947c0.572,1.654,1.167,3.301,1.786,4.934h28.897l6.407-4.973H36.049L36.002,144.947z"/>
		<path d="M72.379,116.734h27.941v-4.975H77.357c0.098,0.297,0.182,0.6,0.283,0.896L72.379,116.734z"/>
		<path d="M72.111,79.159c0,1.482,0.033,2.958,0.098,4.428h26.344c0.066-1.667,0.164-3.324,0.309-4.973H72.123
			C72.123,78.796,72.111,78.978,72.111,79.159z"/>
	</g>
	<path fill="#DB4437" d="M72.111,79.159c0-0.181,0.012-0.362,0.012-0.544H26.599c-0.083,1.652-0.144,3.309-0.181,4.973h45.791
		C72.145,82.117,72.111,80.641,72.111,79.159z"/>
</g>
</svg>
