<?xml version="1.0" encoding="utf-8"?>
<!-- Generator: Adobe Illustrator 15.1.0, SVG Export Plug-In . SVG Version: 6.00 Build 0)  -->
<!DOCTYPE svg PUBLIC "-//W3C//DTD SVG 1.1//EN" "http://www.w3.org/Graphics/SVG/1.1/DTD/svg11.dtd">
<svg version="1.1" id="Layer_1" xmlns="http://www.w3.org/2000/svg" xmlns:xlink="http://www.w3.org/1999/xlink" x="0px" y="0px"
	 width="255px" height="133px" viewBox="0 0 255 133" enable-background="new 0 0 255 133" xml:space="preserve">
<g>
	<path fill="#32A651" d="M202.016,51.938c-14.679,9.839-33.458,15.651-55.519,15.651c-42.696,0-78.836-28.842-91.726-67.589
		L0,42.477c26.972,53.578,82.414,90.311,146.497,90.311c44.268,0,81.375-14.673,108.503-39.714L202.016,51.938z"/>
	<g>
		<path fill="#367F45" d="M212.019,81.234h-0.327h-93.343h-0.326h-0.325H27.182c1.503,1.598,3.035,3.165,4.601,4.7h85.914h0.325
			h0.326h93.343h0.327h0.324h33.462l-6.053-4.7h-27.409H212.019z"/>
		<path fill="#367F45" d="M202.016,51.938c-1.385,0.931-2.819,1.811-4.278,2.667h7.712L202.016,51.938z"/>
		<path fill="#367F45" d="M24.026,49.903H23.7H4.01c0.903,1.583,1.831,3.151,2.783,4.701H23.7h0.326h0.327h74.521
			c-2.487-1.458-4.896-3.034-7.238-4.701H24.353H24.026z"/>
		<path fill="#367F45" d="M24.765,23.271h41.286c-1.007-1.537-1.969-3.106-2.891-4.7H30.823L24.765,23.271z"/>
		<path fill="#367F45" d="M118.022,65.569h-0.325H24.353h-0.327H23.7h-9.555c1.16,1.588,2.348,3.155,3.562,4.698H23.7h0.326h0.327
			h93.345h0.325h0.326h93.343h0.327h0.324h13.282l-6.052-4.698h-7.23h-0.324h-0.327h-43.565c-6.799,1.312-14.014,2.02-21.629,2.02
			c-6.633,0-13.106-0.699-19.36-2.02h-8.788H118.022z"/>
		<path fill="#367F45" d="M24.026,34.238H23.7H10.622l-6.058,4.7H23.7h0.326h0.327h54.381c-1.504-1.517-2.955-3.089-4.359-4.7
			H24.353H24.026z"/>
		<path fill="#367F45" d="M44.963,7.604H57.66c-0.66-1.548-1.277-3.116-1.86-4.7h-4.776L44.963,7.604z"/>
		<path fill="#367F45" d="M212.019,112.568h-0.327h-9.465h-21.54h-62.338h-0.326h-0.325h-9.469H86.689H67.595
			c3.02,1.661,6.098,3.228,9.23,4.699h9.864h21.539h9.469h0.325h0.326h62.338h21.54h9.465h0.327h0.324h6.756
			c3.096-1.47,6.121-3.038,9.071-4.699h-15.827H212.019z"/>
		<path fill="#367F45" d="M118.022,128.232h-0.325h-9.648c12.333,2.964,25.203,4.555,38.448,4.555
			c14.459,0,28.148-1.573,40.981-4.555h-69.13H118.022z"/>
		<path fill="#367F45" d="M212.019,96.901h-0.327h-9.465h-21.54h-62.338h-0.326h-0.325h-9.469H86.689H44.157
			c2.011,1.61,4.047,3.185,6.133,4.699h36.399h21.539h9.469h0.325h0.326h62.338h21.54h9.465h0.327h0.324h32.494
			c1.986-1.515,3.928-3.085,5.827-4.699h-38.321H212.019z"/>
	</g>
</g>
</svg>
