<?xml version="1.0" encoding="utf-8"?>
<!-- Generator: Adobe Illustrator 15.1.0, SVG Export Plug-In . SVG Version: 6.00 Build 0)  -->
<!DOCTYPE svg PUBLIC "-//W3C//DTD SVG 1.1//EN" "http://www.w3.org/Graphics/SVG/1.1/DTD/svg11.dtd">
<svg version="1.1" id="Layer_1" xmlns="http://www.w3.org/2000/svg" xmlns:xlink="http://www.w3.org/1999/xlink" x="0px" y="0px"
	 width="16px" height="16px" viewBox="0 0 16 16" enable-background="new 0 0 16 16" xml:space="preserve">
<g>
	<rect fill="#43FFA9" width="15.979" height="16"/>
</g>
<g>
	<g>
		<path fill="#3165AF" d="M2.718,2.447C2.704,2.492,2.693,2.539,2.686,2.584h9.323c0.033-0.045,0.072-0.092,0.109-0.137H2.718z"/>
	</g>
	<g>
		<path fill="#3165AF" d="M12.016,1.345V1.35C12,1.336,11.888,1.223,11.804,1.218c-0.211-0.014-0.157-0.011-0.649-0.011H6.863
			C6.777,1.299,6.766,1.299,6.667,1.345H12.016z"/>
	</g>
	<g>
		<path fill="#3165AF" d="M4.304,1.207H2.882C2.873,1.253,2.867,1.299,2.869,1.345H4.31C4.302,1.299,4.3,1.253,4.304,1.207z"/>
	</g>
	<g>
		<path fill="#3165AF" d="M3.006,1.987h9.399c-0.006-0.092-0.03-0.138-0.077-0.138H2.985c0.011,0,0.026,0.135,0.026,0.135
			C3.009,1.987,3.007,1.987,3.006,1.987z"/>
	</g>
	<g>
		<path fill="#3165AF" d="M3.076,0.531C3.055,0.527,3.027,0.526,2.996,0.526c-0.11,0-0.276,0.022-0.402,0.071
			C2.532,0.622,2.488,0.653,2.463,0.683C2.46,0.704,2.458,0.703,2.459,0.748h0.592C3.039,0.703,3.043,0.64,3.062,0.575
			C3.066,0.562,3.071,0.544,3.076,0.531z"/>
	</g>
	<g>
		<path fill="#3165AF" d="M7.503,0.669C7.48,0.693,7.457,0.703,7.433,0.748h2.333c-0.014-0.045-0.03-0.092-0.05-0.138H7.565
			L7.552,0.621C7.536,0.638,7.52,0.651,7.503,0.669z"/>
	</g>
	<g>
		<path fill="#3165AF" d="M3.29,6.165C3.262,6.21,3.233,6.256,3.205,6.302h9.979c0.003-0.045,0.017-0.091,0.033-0.137H3.29z"/>
	</g>
	<g>
		<path fill="#3165AF" d="M3.566,4.925c0,0.046-0.01,0.072-0.01,0.113v0.025h10.639c0.039-0.046,0.084-0.092,0.128-0.138H3.566z"/>
	</g>
	<g>
		<path fill="#3165AF" d="M3.495,3.824h9.687c-0.098-0.046-0.177-0.092-0.25-0.138h-9.57C3.418,3.732,3.462,3.777,3.495,3.824z"/>
	</g>
	<g>
		<path fill="#3165AF" d="M3.55,5.521c-0.008,0.046-0.016,0.107-0.026,0.15l10.063-0.003c0.028-0.048,0.042-0.101,0.044-0.146H3.55z
			"/>
	</g>
	<g>
		<path fill="#3165AF" d="M14.653,4.282H3.598C3.597,4.328,3.597,4.374,3.595,4.466h11.104c0.009-0.046,0.017-0.066,0.023-0.087
			C14.703,4.353,14.68,4.328,14.653,4.282z"/>
	</g>
	<g>
		<path fill="#3165AF" d="M2.679,3.227h9.63c-0.047-0.046-0.087-0.092-0.123-0.138H2.673L2.679,3.227z"/>
	</g>
	<g>
		<path fill="#3165AF" d="M3.818,9.883C3.83,9.928,3.84,9.973,3.852,10.02h8.309c0.013-0.047,0.027-0.092,0.04-0.137H3.818z"/>
	</g>
	<g>
		<path fill="#3165AF" d="M3.459,8.643l0.044,0.138h9.007c0.011-0.046,0.022-0.093,0.032-0.138H3.459z"/>
	</g>
	<g>
		<path fill="#3165AF" d="M3.145,7.404c0.009,0.045,0.018,0.092,0.026,0.138h9.423c0.019-0.046,0.036-0.092,0.051-0.138H3.145z"/>
	</g>
	<g>
		<path fill="#3165AF" d="M3.647,9.24c0.014,0.047,0.028,0.092,0.042,0.137h8.652c0.014-0.045,0.027-0.09,0.041-0.137H3.647z"/>
	</g>
	<g>
		<path fill="#3165AF" d="M12.479,8H3.281c0.013,0.046,0.026,0.092,0.038,0.138h9.157C12.473,8.092,12.474,8.046,12.479,8z"/>
	</g>
	<g>
		<path fill="#3165AF" d="M3.074,6.792c0.002,0.037,0.005,0.107,0.008,0.107h9.59l-0.013-0.138H3.073
			C3.073,6.761,3.073,6.781,3.074,6.792z"/>
	</g>
	<g>
		<path fill="#3165AF" d="M12.038,10.479H3.943c0.007,0.045,0.014,0.092,0.02,0.139h7.958c0.036-0.047,0.07-0.059,0.104-0.082
			C12.029,10.516,12.033,10.479,12.038,10.479z"/>
	</g>
	<g>
		<path fill="#3165AF" d="M5.827,13.555h-3.19c-0.022,0.045-0.04,0.092-0.053,0.137h3.178c0.014,0,0.027-0.055,0.04-0.082
			C5.809,13.59,5.817,13.6,5.827,13.555z"/>
	</g>
	<g>
		<path fill="#3165AF" d="M10.728,13.691c-0.015-0.045-0.03-0.092-0.033-0.137H6.82c0.066,0.045,0.128,0.092,0.188,0.137H10.728z"/>
	</g>
	<g>
		<path fill="#3165AF" d="M2.991,12.314c0.015,0.045,0.025,0.092,0.033,0.139h8.14c0.012-0.047,0.024-0.094,0.036-0.139H2.991z"/>
	</g>
	<g>
		<path fill="#3165AF" d="M3.994,11.076c0,0.045,0,0.09,0,0.184h7.52c0.02-0.094,0.041-0.139,0.063-0.184H3.994z"/>
	</g>
	<g>
		<path fill="#3165AF" d="M2.964,12.957c-0.019,0.045-0.04,0.092-0.066,0.139h8.048c0.021-0.047,0.042-0.094,0.062-0.139H2.964z"/>
	</g>
	<g>
		<path fill="#3165AF" d="M3.952,11.719c-0.006,0.045-0.014,0.092-0.023,0.137h7.393c0.011-0.045,0.022-0.092,0.036-0.137H3.952z"/>
	</g>
	<g>
		<path fill="#3165AF" d="M7.593,14.195H7.328c0.02,0,0.073,0.068,0.092,0.102C7.48,14.291,7.569,14.242,7.593,14.195z"/>
	</g>
	<g>
		<path fill="#3165AF" d="M2.794,14.195c0.02,0.047,0.039,0.094,0.056,0.139h0.151c0.013-0.045,0.026-0.092,0.04-0.139H2.794z"/>
	</g>
	<g>
		<path fill="#3165AF" d="M8.908,14.195c0.055,0.047,0.109,0.094,0.164,0.139h1.238c0.036-0.045,0.074-0.092,0.116-0.139H8.908z"/>
	</g>
	<g>
		<path fill="#3165AF" d="M9.441,14.932h0.617c-0.01,0-0.008-0.094,0-0.139H9.377c0.01,0.045,0.02,0.039,0.027,0.061
			C9.418,14.879,9.429,14.932,9.441,14.932z"/>
	</g>
	<g>
		<path fill="#3165AF" d="M9.896,15.475l0.144-0.004c0.011-0.008,0.034-0.012,0.077-0.027c0.009-0.004,0.014-0.008,0.021-0.008
			H9.771C9.81,15.436,9.851,15.467,9.896,15.475z"/>
	</g>
</g>
</svg>
